<svg width="34" height="26" viewBox="0 0 34 26" fill="none" xmlns="http://www.w3.org/2000/svg">
<g clip-path="url(#clip0_1_54)">
<path d="M0.253267 2.12672C0.460644 2.07354 0.852855 2.00411 1.30518 2.12672C2.21132 2.37194 2.59902 3.17998 2.65763 3.3085C2.65763 10.8423 2.65763 18.3761 2.65763 25.91C2.44424 25.9395 2.13017 25.9631 1.75599 25.91C1.61624 25.8908 1.36829 25.8553 1.1549 25.7622C0.555315 25.4993 0.322393 24.8153 0.253267 24.5805C0.253267 17.0954 0.253267 9.6118 0.253267 2.12672Z" fill="#1E1E1E"/>
<path opacity="0.3" d="M2.25327 1.12672C2.46064 1.07354 2.85286 1.00411 3.30518 1.12672C4.21132 1.37194 4.59902 2.17998 4.65763 2.3085C4.65763 9.84232 4.65763 17.3761 4.65763 24.91C4.44424 24.9395 4.13017 24.9631 3.75599 24.91C3.61624 24.8908 3.36829 24.8553 3.1549 24.7622C2.55532 24.4993 2.32239 23.8153 2.25327 23.5805C2.25327 16.0954 2.25327 8.6118 2.25327 1.12672Z" fill="#1E1E1E"/>
<path opacity="0.1" d="M4.25327 0.126723C4.46064 0.073543 4.85286 0.00411366 5.30518 0.126723C6.21132 0.371941 6.59902 1.17998 6.65763 1.3085C6.65763 8.84232 6.65763 16.3761 6.65763 23.91C6.44424 23.9395 6.13017 23.9631 5.75599 23.91C5.61624 23.8908 5.36829 23.8553 5.1549 23.7622C4.55532 23.4993 4.32239 22.8153 4.25327 22.5805C4.25327 15.0954 4.25327 7.6118 4.25327 0.126723Z" fill="#1E1E1E"/>
<path opacity="0.1" d="M13.1195 16.1663C13.1195 15.0835 13.1195 13.9992 13.1195 12.9164C13.1195 9.51881 13.1195 6.12121 13.1195 2.7236C13.115 2.67338 13.1 2.50497 13.1195 2.28044C13.1375 2.07363 13.2217 1.11196 14.0211 0.507772C14.4659 0.172443 14.9453 0.0867643 15.2233 0.064606C17.6773 0.064606 20.1327 0.064606 22.5867 0.064606C22.7249 0.0586971 22.9338 0.0542654 23.1878 0.064606C25.0106 0.135513 26.3645 0.843101 27.3954 1.3941C27.9454 1.68807 28.8185 2.16226 29.7998 3.01905C31.0711 4.12844 31.7849 5.23635 32.0539 5.67804C32.936 7.1331 33.2485 8.40794 33.4063 9.07565C33.8601 10.996 33.7414 12.5264 33.7068 12.9164C33.6407 13.6432 33.3612 15.958 31.7533 18.3821C31.2995 19.0661 30.2115 20.6674 28.1468 21.9275C26.2263 23.0989 24.3899 23.4091 23.4883 23.5524C22.9383 23.6396 22.4725 23.6794 22.1358 23.7001C19.8322 23.7001 17.527 23.7001 15.2233 23.7001C15.2023 23.7001 15.1467 23.7046 15.073 23.7001C14.3502 23.6632 13.8393 23.0945 13.7206 22.9615C13.151 22.3278 13.1195 21.567 13.1195 21.3366C15.9747 21.3366 18.8299 21.3366 21.685 21.3366C21.7857 21.3366 21.8849 21.3366 21.9856 21.3366C22.0863 21.3366 22.1854 21.3366 22.2861 21.3366C22.5867 21.3366 22.5867 21.3366 22.5867 21.3366C23.5725 21.3351 24.5402 21.0411 24.5402 21.0411C25.1082 20.8683 25.502 20.66 25.8927 20.4502C26.9566 19.88 27.6869 19.2522 27.9965 18.973C28.4849 18.5313 29.7291 17.3806 30.5511 15.4277C31.3626 13.4999 31.3205 11.8469 31.3025 11.4392C31.2814 10.9369 31.1702 9.36223 30.2506 7.59843C29.8163 6.76675 28.6682 4.86853 26.3435 3.60993C24.3073 2.50793 22.3778 2.44293 21.685 2.42816C21.4972 2.42373 21.3424 2.4252 21.2342 2.42816C19.5316 2.42816 17.8275 2.42816 16.1249 2.42816C16.0889 2.42373 16.0363 2.41929 15.9747 2.42816C15.8049 2.45179 15.6982 2.55224 15.6741 2.57588C15.6426 2.6069 15.5479 2.70883 15.5238 2.87132C15.5238 7.25424 15.5238 11.6357 15.5238 16.0186C15.5284 16.054 15.5329 16.1057 15.5238 16.1663C15.5238 16.1663 15.4998 16.3258 15.3736 16.4617C15.2308 16.6139 14.9678 16.6095 14.6222 16.6095C13.6364 16.608 13.4381 16.642 13.2698 16.4617C13.1721 16.3569 13.1345 16.2372 13.1195 16.1663Z" fill="#1E1E1E"/>
<path opacity="0.3" d="M11.1195 17.1663C11.1195 16.0835 11.1195 14.9992 11.1195 13.9164C11.1195 10.5188 11.1195 7.12121 11.1195 3.7236C11.115 3.67338 11.1 3.50497 11.1195 3.28044C11.1375 3.07363 11.2217 2.11196 12.0211 1.50777C12.4659 1.17244 12.9453 1.08676 13.2233 1.06461C15.6773 1.06461 18.1327 1.06461 20.5867 1.06461C20.7249 1.0587 20.9338 1.05427 21.1878 1.06461C23.0106 1.13551 24.3645 1.8431 25.3954 2.3941C25.9454 2.68807 26.8185 3.16226 27.7998 4.01905C29.0711 5.12844 29.7849 6.23635 30.0539 6.67804C30.936 8.1331 31.2485 9.40794 31.4063 10.0756C31.8601 11.996 31.7414 13.5264 31.7068 13.9164C31.6407 14.6432 31.3612 16.958 29.7533 19.3821C29.2995 20.0661 28.2115 21.6674 26.1468 22.9275C24.2263 24.0989 22.3899 24.4091 21.4883 24.5524C20.9383 24.6396 20.4725 24.6794 20.1358 24.7001C17.8322 24.7001 15.527 24.7001 13.2233 24.7001C13.2023 24.7001 13.1467 24.7046 13.073 24.7001C12.3502 24.6632 11.8393 24.0945 11.7206 23.9615C11.151 23.3278 11.1195 22.567 11.1195 22.3366C13.9747 22.3366 16.8299 22.3366 19.685 22.3366C19.7857 22.3366 19.8849 22.3366 19.9856 22.3366C20.0863 22.3366 20.1854 22.3366 20.2861 22.3366C20.5867 22.3366 20.5867 22.3366 20.5867 22.3366C21.5725 22.3351 22.5402 22.0411 22.5402 22.0411C23.1082 21.8683 23.502 21.66 23.8927 21.4502C24.9566 20.88 25.6869 20.2522 25.9965 19.973C26.4849 19.5313 27.7291 18.3806 28.5511 16.4277C29.3626 14.4999 29.3205 12.8469 29.3025 12.4392C29.2814 11.9369 29.1702 10.3622 28.2506 8.59843C27.8163 7.76675 26.6682 5.86853 24.3435 4.60993C22.3073 3.50793 20.3778 3.44293 19.685 3.42816C19.4972 3.42373 19.3424 3.4252 19.2342 3.42816C17.5316 3.42816 15.8275 3.42816 14.1249 3.42816C14.0889 3.42373 14.0363 3.41929 13.9747 3.42816C13.8049 3.45179 13.6982 3.55224 13.6741 3.57588C13.6426 3.6069 13.5479 3.70883 13.5238 3.87132C13.5238 8.25424 13.5238 12.6357 13.5238 17.0186C13.5284 17.054 13.5329 17.1057 13.5238 17.1663C13.5238 17.1663 13.4998 17.3258 13.3736 17.4617C13.2308 17.6139 12.9678 17.6095 12.6222 17.6095C11.6364 17.608 11.4381 17.642 11.2698 17.4617C11.1721 17.3569 11.1345 17.2372 11.1195 17.1663Z" fill="#1E1E1E"/>
<path d="M9.11949 18.2288C9.11949 17.146 9.11949 16.0617 9.11949 14.9789C9.11949 11.5813 9.11949 8.18371 9.11949 4.7861C9.11498 4.73588 9.09995 4.56747 9.11949 4.34294C9.13752 4.13613 9.22167 3.17446 10.0211 2.57027C10.4659 2.23494 10.9453 2.14926 11.2233 2.12711C13.6773 2.12711 16.1327 2.12711 18.5867 2.12711C18.7249 2.1212 18.9338 2.11677 19.1878 2.12711C21.0106 2.19801 22.3645 2.9056 23.3954 3.4566C23.9454 3.75057 24.8185 4.22476 25.7998 5.08155C27.0711 6.19094 27.7849 7.29885 28.0539 7.74054C28.936 9.1956 29.2485 10.4704 29.4063 11.1381C29.8601 13.0585 29.7414 14.5889 29.7068 14.9789C29.6407 15.7057 29.3612 18.0205 27.7533 20.4446C27.2995 21.1286 26.2115 22.7299 24.1468 23.99C22.2263 25.1614 20.3899 25.4716 19.4883 25.6149C18.9383 25.7021 18.4725 25.7419 18.1358 25.7626C15.8322 25.7626 13.527 25.7626 11.2233 25.7626C11.2023 25.7626 11.1467 25.7671 11.073 25.7626C10.3502 25.7257 9.83929 25.157 9.72058 25.024C9.15104 24.3903 9.11949 23.6295 9.11949 23.3991C11.9747 23.3991 14.8299 23.3991 17.685 23.3991C17.7857 23.3991 17.8849 23.3991 17.9856 23.3991C18.0863 23.3991 18.1854 23.3991 18.2861 23.3991C18.5867 23.3991 18.5867 23.3991 18.5867 23.3991C19.5725 23.3976 20.5402 23.1036 20.5402 23.1036C21.1082 22.9308 21.502 22.7225 21.8927 22.5127C22.9566 21.9425 23.6869 21.3147 23.9965 21.0355C24.4849 20.5938 25.7291 19.4431 26.5511 17.4902C27.3626 15.5624 27.3205 13.9094 27.3025 13.5017C27.2814 12.9994 27.1702 11.4247 26.2506 9.66093C25.8163 8.82925 24.6682 6.93103 22.3435 5.67243C20.3073 4.57043 18.3778 4.50543 17.685 4.49066C17.4972 4.48623 17.3424 4.4877 17.2342 4.49066C15.5316 4.49066 13.8275 4.49066 12.1249 4.49066C12.0889 4.48623 12.0363 4.48179 11.9747 4.49066C11.8049 4.51429 11.6982 4.61474 11.6741 4.63838C11.6426 4.6694 11.5479 4.77133 11.5238 4.93382C11.5238 9.31674 11.5238 13.6982 11.5238 18.0811C11.5284 18.1165 11.5329 18.1682 11.5238 18.2288C11.5238 18.2288 11.4998 18.3883 11.3736 18.5242C11.2308 18.6764 10.9678 18.672 10.6222 18.672C9.63642 18.6705 9.43806 18.7045 9.26976 18.5242C9.17208 18.4194 9.13451 18.2997 9.11949 18.2288Z" fill="#1E1E1E"/>
</g>
<defs>
<clipPath id="clip0_1_54">
<rect width="34" height="26" fill="white"/>
</clipPath>
</defs>
</svg>
