<svg width="64" height="64" viewBox="0 0 64 64" fill="none" xmlns="http://www.w3.org/2000/svg">
<path d="M32.3068 56.0139C32.3068 56.0139 54.0704 38.5002 54.0704 24.3024C54.0704 10.6608 41.709 3.69312 33.0833 3.69312H31.4988C22.8941 3.69312 10.5117 10.6398 10.5117 24.3024C10.5852 38.5002 32.3068 56.0139 32.3068 56.0139Z" stroke="black" stroke-miterlimit="10"/>
<path d="M29.9354 7.41723V56.5585C22.5899 56.4011 14.384 53.5993 10.3334 45.3199C8.53158 41.7136 8.23348 37.5399 9.50448 33.7141C13.1457 22.9792 25.2133 11.5937 29.9354 7.41723ZM30.9847 5.14014C27.9626 7.65859 7.38477 25.3612 7.38477 39.6324C7.38477 54.208 20.9109 59.7066 30.4706 59.7066H30.9847V5.14014Z" fill="black"/>
<path d="M34.6568 7.41723C39.3789 11.6147 51.4464 22.9687 55.0877 33.7141C56.3587 37.5399 56.0606 41.7136 54.2587 45.3199C50.2082 53.5993 42.0128 56.4011 34.6568 56.5585V7.41723V7.41723ZM33.6074 5.14014V59.7066H34.1321C43.6707 59.7066 57.2179 54.208 57.2179 39.6324C57.2179 25.3612 36.6401 7.65859 33.6179 5.14014H33.6074Z" fill="black"/>
</svg>
