<svg width="64" height="64" viewBox="0 0 64 64" fill="none" xmlns="http://www.w3.org/2000/svg">
<path d="M11.1067 21.4025H51.7343C52.3693 21.384 53.0015 21.4978 53.5944 21.7373C54.1873 21.9768 54.7292 22.3373 55.1889 22.7979C55.6486 23.2586 56.0169 23.8102 56.2726 24.4212C56.5284 25.0321 56.6664 25.6902 56.6789 26.3575V56.8973C56.6664 57.5646 56.5284 58.2227 56.2726 58.8337C56.0169 59.4446 55.6486 59.9963 55.1889 60.457C54.7292 60.9176 54.1873 61.2781 53.5944 61.5176C53.0015 61.7571 52.3693 61.8709 51.7343 61.8524H11.1067C10.4707 61.8726 9.8372 61.7601 9.24288 61.5213C8.64856 61.2826 8.10521 60.9224 7.64425 60.4616C7.18329 60.0008 6.81386 59.4485 6.55738 58.8367C6.3009 58.2249 6.16243 57.5657 6.14999 56.8973V26.3575C6.16243 25.6892 6.3009 25.03 6.55738 24.4182C6.81386 23.8064 7.18329 23.2541 7.64425 22.7933C8.10521 22.3325 8.64856 21.9722 9.24288 21.7335C9.8372 21.4948 10.4707 21.3823 11.1067 21.4025Z" stroke="#1E1E1E"/>
<path d="M55.0426 22.001C55.0426 22.1653 55.0426 22.317 55.0426 22.4813C55.469 22.9159 55.7943 23.4479 55.9931 24.0361C56.3513 24.6975 56.5573 25.4377 56.5946 26.1977C56.6368 26.4141 56.661 26.634 56.6668 26.8549V57.3947C56.6322 58.5716 56.1562 59.6864 55.3427 60.4961C54.5292 61.3059 53.444 61.745 52.3237 61.7178H10.5051C9.16368 61.7173 8.65432 61.357 7.67734 60.3912C8.18477 61.2488 8.32721 61.2328 9.17029 61.7178C10.0133 62.2028 11.1768 62.1552 12.1379 62.1423L52.3237 62.4358C53.7639 62.4663 55.7041 62.1563 56.7439 61.1088C57.7838 60.0613 58.3851 58.5361 58.4167 57.0229C58.4167 57.0229 58.4167 29.5533 58.4167 27.838C58.4167 26.1226 57.6003 24.8706 57.1004 24.0159C56.6004 23.1611 55.8893 22.4648 55.0426 22.001Z" fill="#1E1E1E"/>
<path fill-rule="evenodd" clip-rule="evenodd" d="M42.8051 1C38.5374 1 35.0778 4.45962 35.0778 8.72727C35.0778 12.995 38.5374 16.4545 42.8051 16.4545C47.0727 16.4545 50.5323 12.995 50.5323 8.72727C50.5323 4.45962 47.0727 1 42.8051 1ZM34.0778 8.72727C34.0778 3.90734 37.9851 0 42.8051 0C47.625 0 51.5323 3.90734 51.5323 8.72727C51.5323 13.5472 47.625 17.4545 42.8051 17.4545C37.9851 17.4545 34.0778 13.5472 34.0778 8.72727Z" fill="#1E1E1E"/>
<path d="M13.6324 35.6535C13.6324 31.1097 17.3158 27.4263 21.8596 27.4263C26.4034 27.4263 30.0869 31.1097 30.0869 35.6535C30.0869 36.5435 29.9074 37.7681 29.6442 38.6445H14.075C13.8118 37.7681 13.6324 36.5435 13.6324 35.6535Z" stroke="#1E1E1E"/>
<path d="M6.53867 38.5635H57.0675" stroke="#1E1E1E" stroke-linecap="round" stroke-linejoin="round"/>
<path d="M6.14999 35.0737H13.7137M56.6789 35.0737H30.0046" stroke="#1E1E1E" stroke-linecap="round" stroke-linejoin="round"/>
</svg>
