<svg width="24" height="24" viewBox="0 0 24 24" xmlns="http://www.w3.org/2000/svg">
<path fill-rule="evenodd" clip-rule="evenodd" d="M22.3536 1.64645C22.5488 1.84171 22.5488 2.15829 22.3536 2.35355L11.3536 13.3536C11.1583 13.5488 10.8417 13.5488 10.6464 13.3536C10.4512 13.1583 10.4512 12.8417 10.6464 12.6464L21.6464 1.64645C21.8417 1.45118 22.1583 1.45118 22.3536 1.64645Z"/>
<path fill-rule="evenodd" clip-rule="evenodd" d="M22.3536 1.64645C22.4894 1.78226 22.5354 1.98388 22.4719 2.16517L15.4719 22.1652C15.4042 22.3587 15.2252 22.4912 15.0204 22.4996C14.8155 22.5079 14.6264 22.3904 14.5431 22.2031L10.6212 13.3788L1.79693 9.4569C1.60959 9.37364 1.49206 9.18446 1.50042 8.97962C1.50878 8.77478 1.64133 8.59579 1.83483 8.52807L21.8348 1.52807C22.0161 1.46462 22.2177 1.51063 22.3536 1.64645ZM3.35554 9.0553L11.2031 12.5431C11.3162 12.5934 11.4066 12.6838 11.4569 12.7969L14.9447 20.6445L21.185 2.81498L3.35554 9.0553Z"/>
</svg>
