<svg width="32" height="32" viewBox="0 0 32 32" xmlns="http://www.w3.org/2000/svg">
<path fill-rule="evenodd" clip-rule="evenodd" d="M12.133 5.8362C9.75818 5.8362 7.83301 7.76137 7.83301 10.1362C7.83301 12.511 9.75818 14.4362 12.133 14.4362C14.5078 14.4362 16.433 12.511 16.433 10.1362C16.433 7.76137 14.5078 5.8362 12.133 5.8362ZM6.83301 10.1362C6.83301 7.20909 9.2059 4.8362 12.133 4.8362C15.0601 4.8362 17.433 7.20909 17.433 10.1362C17.433 13.0633 15.0601 15.4362 12.133 15.4362C9.2059 15.4362 6.83301 13.0633 6.83301 10.1362Z"/>
<path fill-rule="evenodd" clip-rule="evenodd" d="M12.6667 18.6331C11.1755 18.6331 9.96667 19.8419 9.96667 21.3331C9.96667 22.8242 11.1755 24.0331 12.6667 24.0331C14.1578 24.0331 15.3667 22.8242 15.3667 21.3331C15.3667 19.8419 14.1578 18.6331 12.6667 18.6331ZM8.96667 21.3331C8.96667 19.2896 10.6232 17.6331 12.6667 17.6331C14.7101 17.6331 16.3667 19.2896 16.3667 21.3331C16.3667 23.3765 14.7101 25.0331 12.6667 25.0331C10.6232 25.0331 8.96667 23.3765 8.96667 21.3331Z"/>
<path fill-rule="evenodd" clip-rule="evenodd" d="M10.0066 1.56667C5.87013 1.56667 2.5 4.98982 2.5 9.23345V21.6999C2.5 25.9435 5.87013 29.3667 10.0066 29.3667H22.2286C26.3652 29.3667 29.7353 25.9435 29.7353 21.6999V9.23345C29.7353 4.98982 26.3652 1.56667 22.2286 1.56667H10.0066ZM1.5 9.23345C1.5 4.4563 5.29927 0.566667 10.0066 0.566667H22.2286C26.936 0.566667 30.7353 4.4563 30.7353 9.23345V21.6999C30.7353 26.477 26.936 30.3667 22.2286 30.3667H10.0066C5.29927 30.3667 1.5 26.477 1.5 21.6999V9.23345Z"/>
</svg>
