<svg width="32" height="32" viewBox="0 0 32 32" xmlns="http://www.w3.org/2000/svg">
<path fill-rule="evenodd" clip-rule="evenodd" d="M10.0066 1.56667C5.87013 1.56667 2.5 4.98982 2.5 9.23345V21.6999C2.5 25.9435 5.87013 29.3667 10.0066 29.3667H22.2286C26.3652 29.3667 29.7353 25.9435 29.7353 21.6999V9.23345C29.7353 4.98982 26.3652 1.56667 22.2286 1.56667H10.0066ZM1.5 9.23345C1.5 4.4563 5.29927 0.566667 10.0066 0.566667H22.2286C26.936 0.566667 30.7353 4.4563 30.7353 9.23345V21.6999C30.7353 26.477 26.936 30.3667 22.2286 30.3667H10.0066C5.29927 30.3667 1.5 26.477 1.5 21.6999V9.23345Z"/>
<path fill-rule="evenodd" clip-rule="evenodd" d="M21.4005 10.594V16.471H20.4005V10.594H21.4005Z"/>
<path fill-rule="evenodd" clip-rule="evenodd" d="M10.8408 21.346V15.469H11.8408V21.346H10.8408Z"/>
<path fill-rule="evenodd" clip-rule="evenodd" d="M11.3646 6.22292C8.98976 6.22292 7.06459 8.14809 7.06459 10.5229C7.06459 12.8977 8.98976 14.8229 11.3646 14.8229C13.7394 14.8229 15.6646 12.8977 15.6646 10.5229C15.6646 8.14809 13.7394 6.22292 11.3646 6.22292ZM6.06459 10.5229C6.06459 7.59581 8.43748 5.22292 11.3646 5.22292C14.2917 5.22292 16.6646 7.59581 16.6646 10.5229C16.6646 13.45 14.2917 15.8229 11.3646 15.8229C8.43748 15.8229 6.06459 13.45 6.06459 10.5229Z"/>
<path fill-rule="evenodd" clip-rule="evenodd" d="M20.924 16.969C18.5492 16.969 16.624 18.8942 16.624 21.269C16.624 23.6438 18.5492 25.569 20.924 25.569C23.2989 25.569 25.224 23.6438 25.224 21.269C25.224 18.8942 23.2989 16.969 20.924 16.969ZM15.624 21.269C15.624 18.3419 17.9969 15.969 20.924 15.969C23.8511 15.969 26.224 18.3419 26.224 21.269C26.224 24.1961 23.8511 26.569 20.924 26.569C17.9969 26.569 15.624 24.1961 15.624 21.269Z"/>
</svg>
