<svg width="32" height="34" viewBox="0 0 32 34" xmlns="http://www.w3.org/2000/svg">
<path fill-rule="evenodd" clip-rule="evenodd" d="M16.0914 0.606016L15.7836 1L15.4758 0.605958L15.7837 0.365503L16.0914 0.606016ZM15.7835 1.64077C15.7064 1.70347 15.6157 1.77764 15.5127 1.86277C15.1415 2.16947 14.6101 2.61812 13.972 3.18384C12.6951 4.31591 10.9941 5.91377 9.29471 7.77873C7.59379 9.64541 5.90447 11.7689 4.64283 13.9517C3.37773 16.1405 2.56667 18.3481 2.56667 20.3931C2.56667 24.3996 4.42767 27.4151 6.95485 29.4415C9.49461 31.478 12.6912 32.5 15.293 32.5H16.269C18.8708 32.5 22.0673 31.478 24.6071 29.4415C27.1342 27.4151 28.9952 24.3996 28.9952 20.3931C28.9952 18.348 28.1845 16.1405 26.9199 13.9516C25.6587 11.7688 23.97 9.64533 22.2698 7.77866C20.5711 5.91371 18.8707 4.31584 17.5943 3.18378C16.9564 2.61806 16.4252 2.16941 16.0542 1.86271C15.9513 1.77761 15.8606 1.70345 15.7835 1.64077ZM15.4758 0.605958C15.476 0.605817 15.4758 0.605958 15.7836 1C16.0914 0.606016 16.0913 0.605875 16.0914 0.606016L16.0946 0.608448L16.1026 0.614774L16.1333 0.638966C16.1601 0.660173 16.1994 0.691476 16.2505 0.732485C16.3527 0.814502 16.5019 0.93536 16.6913 1.09195C17.0701 1.40508 17.6102 1.86129 18.2578 2.43563C19.5523 3.58369 21.2798 5.20682 23.0091 7.10527C24.7367 9.00201 26.4759 11.1844 27.7857 13.4514C29.0921 15.7124 29.9952 18.0987 29.9952 20.3931C29.9952 24.7468 27.9601 28.0347 25.2327 30.2217C22.5178 32.3986 19.1012 33.5 16.269 33.5H15.293C12.4608 33.5 9.04419 32.3986 6.32928 30.2217C3.60181 28.0347 1.56667 24.7468 1.56667 20.3931C1.56667 18.0987 2.47021 15.7123 3.77704 13.4513C5.08732 11.1843 6.82724 9.00194 8.55555 7.1052C10.2854 5.20675 12.0136 3.58363 13.3086 2.43556C13.9565 1.86123 14.4967 1.40502 14.8757 1.09188C15.0652 0.935301 15.2144 0.814442 15.3167 0.732426C15.3678 0.691417 15.4072 0.660114 15.434 0.638907L15.4646 0.614716L15.4727 0.60839L15.4758 0.605958Z"/>
<path fill-rule="evenodd" clip-rule="evenodd" d="M16.1785 6.70159L15.8683 7.09375L15.5992 6.67233L15.8992 6.48075L16.1785 6.70159ZM24.4205 15.9846C23.2999 13.6988 21.223 11.3723 19.4595 9.63811C18.5722 8.76565 17.7537 8.03297 17.1568 7.5182C16.8582 7.2607 16.6147 7.05742 16.4454 6.91811C16.3607 6.84846 16.2946 6.79477 16.2493 6.75828L16.1973 6.71659L16.1836 6.70569L16.1785 6.70159C16.1784 6.70151 16.1785 6.70159 15.8683 7.09375C15.5992 6.67233 15.5993 6.67226 15.5992 6.67233L15.598 6.67308L15.5957 6.67457L15.5877 6.67974L15.5587 6.69864C15.5337 6.71498 15.4979 6.73869 15.4527 6.76917C15.3625 6.83009 15.2346 6.91824 15.0819 7.02873C14.7773 7.24906 14.3695 7.5613 13.9619 7.92617C13.557 8.28868 13.1377 8.71616 12.8212 9.16841C12.5125 9.60947 12.2544 10.1408 12.2826 10.6953L12.2828 10.6979C12.2962 10.9364 12.4127 11.1622 12.5242 11.3389C12.6454 11.5309 12.8097 11.7395 13 11.957C13.3813 12.393 13.9064 12.9098 14.5044 13.4697C15.0909 14.0189 15.7587 14.6199 16.4468 15.2391L16.4938 15.2814C17.1996 15.9165 17.9263 16.5711 18.617 17.2161C20.2906 18.8066 21.8622 20.4814 23.3242 22.2324L23.3262 22.2348C23.5102 22.4524 23.7618 22.6668 24.0849 22.6969C24.4543 22.7314 24.7162 22.5149 24.8667 22.3022C25.0127 22.0958 25.106 21.8306 25.1687 21.5621C25.2332 21.2854 25.2738 20.9666 25.2927 20.6254C25.3675 19.2781 25.1133 17.3918 24.4205 15.9846ZM15.841 7.71581C15.7886 7.75247 15.7306 7.79366 15.668 7.83896C15.3815 8.04618 15.0029 8.33641 14.629 8.67119C14.2524 9.00834 13.8953 9.3777 13.6405 9.74177C13.3818 10.1115 13.2732 10.4125 13.2809 10.6345C13.2809 10.6345 13.2809 10.6345 13.2809 10.6345C13.2821 10.6343 13.2946 10.6859 13.3699 10.8053C13.4519 10.9352 13.5787 11.0998 13.7527 11.2987C14.0998 11.6955 14.5948 12.1845 15.1879 12.7398C15.767 13.2821 16.4285 13.8773 17.1198 14.4995L17.1628 14.5381C17.8681 15.1728 18.6021 15.8339 19.3011 16.4867L19.3043 16.4897C21.0056 18.1064 22.6037 19.8093 24.0908 21.5903C24.0972 21.5978 24.1034 21.605 24.1093 21.6117C24.137 21.5454 24.1669 21.4545 24.1948 21.3349C24.2428 21.1292 24.2776 20.8704 24.2943 20.57C24.3619 19.3505 24.1229 17.6441 23.5232 16.4262C22.4807 14.2992 20.5056 12.0693 18.7583 10.3511C17.8901 9.49734 17.0883 8.77958 16.5037 8.27548C16.2294 8.03893 16.0033 7.84969 15.841 7.71581Z"/>
<path fill-rule="evenodd" clip-rule="evenodd" d="M9.19405 14.6476C8.47919 15.4309 7.7106 16.5362 7.36647 17.8298L7.36635 17.8302C6.91669 19.5142 7.21667 20.5986 7.59816 21.1598C7.79376 21.4475 8.00089 21.587 8.13589 21.6335C8.17769 21.6479 8.20436 21.6523 8.22001 21.653C8.3523 21.4847 8.48642 21.2835 8.65874 21.0249C8.69446 20.9713 8.73183 20.9153 8.77116 20.8565C9.00092 20.5134 9.28132 20.1048 9.65523 19.6321C10.3593 18.742 11.3832 17.6392 13.0216 16.2978C13.0067 16.2789 12.9909 16.2592 12.9741 16.2385C12.7647 15.9804 12.4505 15.6344 12.0918 15.2678C11.469 14.6313 10.7656 13.9876 10.2846 13.6429C10.2401 13.6753 10.1891 13.714 10.1324 13.7591C9.88428 13.9565 9.54955 14.2581 9.19405 14.6476ZM8.23846 21.6504C8.23891 21.6511 8.23583 21.6527 8.22787 21.653C8.23404 21.6499 8.23802 21.6497 8.23846 21.6504ZM10.1772 12.5726C10.2068 12.5657 10.3483 12.5328 10.5058 12.601L10.5337 12.613L10.56 12.6284C11.1523 12.9755 12.0794 13.8252 12.8065 14.5684C13.1772 14.9472 13.5145 15.3175 13.7506 15.6084C13.8663 15.751 13.9699 15.8894 14.0404 16.0074C14.073 16.062 14.1166 16.1415 14.1426 16.2307C14.1554 16.2746 14.174 16.3537 14.1654 16.4498C14.156 16.5558 14.1094 16.7052 13.9699 16.817L13.9693 16.8175C12.1951 18.2341 11.1384 19.369 10.4395 20.2525C10.0894 20.6952 9.8257 21.079 9.60208 21.4129C9.56685 21.4656 9.53214 21.5177 9.49788 21.5691C9.32115 21.8345 9.15625 22.0821 8.99169 22.2893C8.6822 22.6894 8.18927 22.7095 7.81036 22.5791C7.42521 22.4465 7.05761 22.1434 6.77114 21.722C6.18849 20.8648 5.89495 19.4644 6.4002 17.5723C6.8 16.0698 7.67733 14.826 8.45543 13.9735C8.84645 13.5451 9.21998 13.2071 9.50995 12.9764C9.65398 12.8619 9.78358 12.7689 9.88895 12.7035C9.93989 12.6718 9.99695 12.6392 10.0538 12.6142C10.081 12.6022 10.1239 12.5849 10.1755 12.573C10.176 12.5729 10.1765 12.5728 10.1772 12.5726Z"/>
<path fill-rule="evenodd" clip-rule="evenodd" d="M16.0914 17.4185L15.7835 17.8125L15.4759 17.4184L15.7837 17.1781L16.0914 17.4185ZM21.3588 24.9891C21.3577 24.0622 20.9947 23.1238 20.4988 22.2651C19.9987 21.3991 19.339 20.5725 18.6909 19.8608C18.0412 19.1473 17.3932 18.5384 16.9083 18.1084C16.6656 17.893 16.4629 17.7218 16.3202 17.6038C16.2488 17.5448 16.1925 17.4991 16.1535 17.4679L16.1085 17.432L16.0963 17.4224L16.093 17.4197L16.0914 17.4185C16.0913 17.4184 16.0914 17.4185 15.7835 17.8125C15.4759 17.4184 15.476 17.4183 15.4759 17.4184L15.471 17.4222L15.4588 17.4318L15.4137 17.4677C15.3747 17.499 15.3183 17.5447 15.2469 17.6037C15.104 17.7216 14.9011 17.8929 14.6581 18.1082C14.1728 18.5383 13.5241 19.1471 12.8738 19.8606C12.225 20.5723 11.5646 21.3989 11.064 22.2649C10.5676 23.1236 10.2041 24.0621 10.203 24.9891C10.1814 26.3354 10.744 27.6255 11.7525 28.5874C12.7604 29.5488 14.135 30.1092 15.5803 30.1629L15.5896 30.1633H15.9722L15.9815 30.1629C17.4268 30.1092 18.8014 29.5488 19.8094 28.5874C20.8179 27.6255 21.3805 26.3354 21.3588 24.9891ZM15.7834 18.4581C15.659 18.5623 15.5019 18.6966 15.3213 18.8567C14.854 19.2707 14.2326 19.8543 13.6128 20.5342C12.9914 21.2159 12.3817 21.9836 11.9297 22.7654C11.4743 23.5531 11.203 24.3144 11.203 24.9934V25.0019C11.1851 26.0542 11.6232 27.0821 12.4427 27.8638C13.2619 28.6452 14.3963 29.1161 15.6084 29.1633H15.9534C17.1655 29.1161 18.3 28.6451 19.1192 27.8638C19.9387 27.0821 20.3768 26.0542 20.3589 25.0019L20.3587 24.9934C20.3587 24.3142 20.0877 23.5529 19.6328 22.7652C19.1813 21.9834 18.5722 21.2157 17.9515 20.534C17.3323 19.8541 16.7115 19.2705 16.2448 18.8565C16.0644 18.6965 15.9076 18.5623 15.7834 18.4581Z"/>
</svg>
