<svg width="32" height="32" viewBox="0 0 32 32" xmlns="http://www.w3.org/2000/svg">
<path fill-rule="evenodd" clip-rule="evenodd" d="M14.6198 2.0984C14.6198 1.82226 14.8436 1.5984 15.1198 1.5984C21.4821 1.5984 26.8517 5.71547 28.3347 11.3151C28.4054 11.5821 28.2464 11.8558 27.9794 11.9265C27.7125 11.9972 27.4388 11.8381 27.3681 11.5711C26.008 6.43571 21.0555 2.5984 15.1198 2.5984C14.8436 2.5984 14.6198 2.37454 14.6198 2.0984ZM2.897 9.91414C3.15602 10.0099 3.28839 10.2975 3.19266 10.5565C2.74385 11.7708 2.5 13.075 2.5 14.4334C2.5 20.3624 7.162 25.3088 13.2865 26.1446C13.5601 26.1819 13.7516 26.434 13.7143 26.7076C13.6769 26.9812 13.4249 27.1727 13.1513 27.1354C6.5857 26.2395 1.5 20.9154 1.5 14.4334C1.5 12.9543 1.7657 11.5328 2.25467 10.2098C2.3504 9.95078 2.63798 9.81841 2.897 9.91414Z"/>
<path fill-rule="evenodd" clip-rule="evenodd" d="M8.96774 1.56641C6.53141 1.56641 4.56451 3.52149 4.56451 5.92321C4.56451 8.32493 6.53141 10.28 8.96774 10.28C11.4041 10.28 13.371 8.32493 13.371 5.92321C13.371 3.52149 11.4041 1.56641 8.96774 1.56641ZM3.56451 5.92321C3.56451 2.96026 5.98811 0.566406 8.96774 0.566406C11.9474 0.566406 14.371 2.96026 14.371 5.92321C14.371 8.88617 11.9474 11.28 8.96774 11.28C5.98811 11.28 3.56451 8.88617 3.56451 5.92321Z"/>
<path fill-rule="evenodd" clip-rule="evenodd" d="M21.871 22.6992C20.0047 22.6992 18.5 24.1965 18.5 26.0335C18.5 27.8706 20.0047 29.3679 21.871 29.3679C23.7372 29.3679 25.2419 27.8706 25.2419 26.0335C25.2419 24.1965 23.7372 22.6992 21.871 22.6992ZM17.5 26.0335C17.5 23.6353 19.4614 21.6992 21.871 21.6992C24.2805 21.6992 26.2419 23.6353 26.2419 26.0335C26.2419 28.4318 24.2805 30.3679 21.871 30.3679C19.4614 30.3679 17.5 28.4318 17.5 26.0335Z"/>
<path fill-rule="evenodd" clip-rule="evenodd" d="M26.7742 14.0395C25.3355 14.0395 24.1774 15.1934 24.1774 16.6069C24.1774 18.0204 25.3355 19.1744 26.7742 19.1744C28.2129 19.1744 29.371 18.0204 29.371 16.6069C29.371 15.1934 28.2129 14.0395 26.7742 14.0395ZM23.1774 16.6069C23.1774 14.6322 24.7923 13.0395 26.7742 13.0395C28.7562 13.0395 30.371 14.6322 30.371 16.6069C30.371 18.5816 28.7562 20.1744 26.7742 20.1744C24.7923 20.1744 23.1774 18.5816 23.1774 16.6069Z"/>
</svg>
