<svg width="32" height="32" viewBox="0 0 32 32" xmlns="http://www.w3.org/2000/svg">
<path opacity="0.06" fill-rule="evenodd" clip-rule="evenodd" d="M1.66346 22.8804C1.75786 22.6209 2.04475 22.487 2.30426 22.5814L15.1845 27.2664C16.0694 27.5749 17.0655 27.5749 17.9504 27.2664L30.7626 22.6103C31.0221 22.516 31.309 22.6499 31.4033 22.9095C31.4976 23.169 31.3637 23.4558 31.1041 23.5502L18.2832 28.2095C17.183 28.5939 15.9519 28.5939 14.8517 28.2094L14.8458 28.2073L1.96243 23.5212C1.70292 23.4268 1.56907 23.1399 1.66346 22.8804Z"/>
<path fill-rule="evenodd" clip-rule="evenodd" d="M1.66346 16.814C1.75786 16.5545 2.04475 16.4206 2.30426 16.515L15.1845 21.2C16.0694 21.5085 17.0655 21.5085 17.9504 21.2L30.7626 16.5439C31.0221 16.4496 31.309 16.5835 31.4033 16.843C31.4976 17.1026 31.3637 17.3894 31.1041 17.4838L18.2832 22.1431C17.183 22.5275 15.9519 22.5275 14.8517 22.143L14.8458 22.1409L1.96243 17.4548C1.70292 17.3604 1.56907 17.0735 1.66346 16.814Z"/>
<path fill-rule="evenodd" clip-rule="evenodd" d="M1.66346 22.7476C1.75786 22.4881 2.04475 22.3542 2.30426 22.4486L15.1845 27.1336C16.0695 27.4421 17.0656 27.4421 17.9505 27.1336L30.7626 22.4775C31.0221 22.3832 31.309 22.5171 31.4033 22.7766C31.4976 23.0362 31.3637 23.323 31.1041 23.4174L18.2832 28.0766C17.183 28.4611 15.9519 28.4611 14.8517 28.0766L14.8458 28.0745L1.96243 23.3884C1.70292 23.294 1.56907 23.0071 1.66346 22.7476Z"/>
<path fill-rule="evenodd" clip-rule="evenodd" d="M15.1938 3.85183L3.87568 8.48403L3.84092 8.49274C3.49466 8.57945 3.19064 8.77276 2.97371 9.0394C2.75705 9.3057 2.63867 9.63086 2.63351 9.96475C2.62835 10.2986 2.73661 10.6268 2.94472 10.899C3.15308 11.1714 3.45075 11.3733 3.79401 11.4699L3.82246 11.4779L15.364 16.2552C16.1316 16.5596 16.9934 16.5596 17.761 16.2552L29.2419 11.5072L29.2706 11.4991C29.6103 11.404 29.9057 11.2057 30.1142 10.9377C30.3224 10.67 30.4333 10.3466 30.4333 10.0162C30.4333 9.68586 30.3224 9.36247 30.1142 9.09477C29.9057 8.82674 29.6103 8.62848 29.2706 8.53333L29.2449 8.52612L17.5389 3.85333C17.5383 3.85308 17.5376 3.85284 17.537 3.8526C16.7855 3.5605 15.9454 3.56025 15.1938 3.85183ZM14.827 2.92149C15.8136 2.53728 16.9152 2.53728 17.9018 2.92149L17.9057 2.92302L29.5673 7.5781C30.0977 7.73268 30.5666 8.04767 30.9035 8.48083C31.2464 8.92164 31.4333 9.46043 31.4333 10.0162C31.4333 10.572 31.2464 11.1108 30.9035 11.5516C30.5673 11.9839 30.0996 12.2985 29.5704 12.4534L18.1337 17.1833C17.1269 17.5836 15.9981 17.5836 14.9914 17.1832L14.9849 17.1806L3.49322 12.4239C2.95842 12.2666 2.48673 11.9463 2.15037 11.5064C1.8075 11.0581 1.62495 10.511 1.63363 9.9493C1.64231 9.38759 1.84167 8.84628 2.198 8.40831C2.54619 7.98034 3.02484 7.67455 3.56151 7.5321L14.827 2.92149Z"/>
</svg>
