<svg width="32" height="32" viewBox="0 0 32 32" xmlns="http://www.w3.org/2000/svg">
<path fill-rule="evenodd" clip-rule="evenodd" d="M9.06995 28.1689C9.24947 28.6679 9.71917 29 10.2448 29H12.1275C12.661 29 13.1359 28.6579 13.3096 28.1485L16.546 18.6513L19.9876 28.1707C20.1678 28.6686 20.637 29 21.162 29H23.1143C23.6486 29 24.1238 28.6571 24.297 28.1468L28.8414 14.7524C29.6319 12.7499 30 10.9809 30 9.18745C30 8.81483 29.9809 8.43864 29.9402 8.01006C29.5694 3.86947 27.5141 3.00009 25.8552 3L25.8287 3.00027C23.8225 3.04302 22.5806 4.844 22.5806 6.4879C22.5806 7.85295 23.2537 8.9497 23.9652 10.1091L24.136 10.3884C24.6801 11.3525 25.2082 12.4253 25.2082 13.9804C25.2082 15.0277 24.8079 16.3181 24.2539 18.1043L24.1435 18.4604C24.1431 18.462 24.0711 18.7049 23.9746 19.0303C23.7774 19.6952 23.478 20.7046 23.478 20.7046L19.2171 7.9051C19.046 7.3912 18.569 7.04508 18.0321 7.04508H14.1379C13.7299 7.04508 13.3474 7.24634 13.1136 7.58398C12.8797 7.92161 12.8237 8.3534 12.9637 8.74039L14.9087 14.1198L12.6496 20.9608L8.30185 7.90519C8.13055 7.39129 7.65378 7.04517 7.11682 7.04517H3.25016C2.84242 7.04517 2.46032 7.24599 2.22626 7.58326C1.9923 7.92054 1.93591 8.3518 2.07521 8.7387L9.06995 28.1689ZM3.04792 8.15324C3.09667 8.0831 3.17293 8.04517 3.25016 8.04517H7.11682C7.21785 8.04517 7.31611 8.11059 7.35308 8.22115L12.6536 24.1377L15.9668 14.105L13.9041 8.40037C13.9041 8.40038 13.9041 8.40037 13.9041 8.40037C13.874 8.31707 13.8865 8.22425 13.9356 8.1534C13.9843 8.08317 14.0607 8.04509 14.1379 8.04509H18.0321C18.1334 8.04509 18.2316 8.11078 18.2683 8.22103L23.5329 24.0356L24.4367 20.9889L24.8372 19.6387C24.9533 19.2472 25.0633 18.8763 25.0986 18.7564L25.209 18.4005C25.224 18.3522 25.2389 18.3041 25.2538 18.2563C25.7689 16.5966 26.2082 15.1812 26.2082 13.9804C26.2082 12.1659 25.5789 10.9104 25.0069 9.89688L24.9983 9.88162L24.8189 9.5883L24.8181 9.58698C24.0809 8.3857 23.5806 7.52606 23.5806 6.4879C23.5806 5.25239 24.513 4.03101 25.8458 4.00013L25.8485 4.0001L25.8545 4.00002C25.8554 4.00001 25.8559 4 25.8563 4C26.5127 4.00024 27.1615 4.1694 27.6891 4.67462C28.2244 5.18719 28.772 6.17649 28.9441 8.09925L28.9446 8.10471C28.9828 8.50646 29 8.85076 29 9.18745C29 10.8329 28.6645 12.4768 27.9112 14.3852L27.9023 14.4079L23.35 27.8255C23.35 27.8255 23.35 27.8255 23.35 27.8255C23.3128 27.9349 23.2149 28 23.1143 28H21.162C21.0632 28 20.9667 27.9373 20.928 27.8307C20.928 27.8308 20.928 27.8306 20.928 27.8307L16.5181 15.6329L12.3631 27.8258C12.3631 27.8257 12.3631 27.8258 12.3631 27.8258C12.3258 27.935 12.2279 28 12.1275 28H10.2448C10.1456 28 10.0492 27.9369 10.0109 27.8304L3.0161 8.39998C2.98618 8.31689 2.9988 8.22416 3.04792 8.15324Z"/>
</svg>
