<svg width="64" height="64" viewBox="0 0 64 64" fill="none" xmlns="http://www.w3.org/2000/svg">
<path fill-rule="evenodd" clip-rule="evenodd" d="M11.3925 46.2107C11.5827 46.411 11.5745 46.7274 11.3743 46.9176L5.59568 52.406C5.39545 52.5962 5.07897 52.588 4.8888 52.3878C4.69863 52.1876 4.70679 51.8711 4.90701 51.6809L10.6856 46.1925C10.8858 46.0024 11.2023 46.0105 11.3925 46.2107Z" fill="#1E1E1E"/>
<path fill-rule="evenodd" clip-rule="evenodd" d="M16.0073 47.972C16.2017 48.1681 16.2004 48.4847 16.0043 48.6791L5.14047 59.4494C4.94437 59.6439 4.62779 59.6425 4.43337 59.4464C4.23896 59.2503 4.24033 58.9337 4.43643 58.7393L15.3002 47.969C15.4963 47.7746 15.8129 47.7759 16.0073 47.972Z" fill="#1E1E1E"/>
<path fill-rule="evenodd" clip-rule="evenodd" d="M17.7548 52.679C17.9494 52.875 17.9483 53.1916 17.7523 53.3862L11.4825 59.6123C11.2866 59.8068 10.97 59.8057 10.7754 59.6098C10.5809 59.4138 10.582 59.0973 10.7779 58.9027L17.0477 52.6766C17.2437 52.482 17.5602 52.4831 17.7548 52.679Z" fill="#1E1E1E"/>
<path d="M43.0999 54.4037L49.0519 34.9582L54.9749 28.2746C55.3922 27.7956 55.6852 27.2173 55.8272 26.5927L59.5978 9.96517C59.7494 9.35017 59.7494 8.70635 59.5978 8.09138C59.5978 8.09138 59.41 7.57499 59.3377 7.4422C59.2111 7.19527 59.0662 6.95856 58.9044 6.73405C58.718 6.51676 58.5203 6.30984 58.312 6.11432C58.1571 5.98324 58.0122 5.84024 57.8787 5.68649C57.6958 5.47049 57.4979 5.26836 57.2863 5.08162C57.0678 4.91007 56.8359 4.7571 56.5929 4.62426C56.4484 4.55049 56.0006 4.38821 55.9428 4.3587C55.3455 4.20382 54.7198 4.20382 54.1226 4.3587L37.827 8.20943C37.2144 8.35993 36.6483 8.66416 36.1801 9.09463L29.6503 15.129L10.5376 21.2813C9.92144 21.4784 9.36656 21.8368 8.9281 22.3208C8.48964 22.8048 8.18289 23.3976 8.03838 24.0403L5.61137 34.368C5.4618 35.0267 5.48673 35.7141 5.6836 36.3597C5.86498 36.9533 6.18188 37.4944 6.60818 37.9384L6.7093 38.0417C7.19526 38.4933 7.78758 38.8084 8.42843 38.9564C9.06982 39.1046 9.73844 39.074 10.3642 38.8679L13.1668 37.9827V38.1154C13.1145 38.6904 13.1886 39.2701 13.3835 39.8122C13.5803 40.3681 13.8962 40.8722 14.3081 41.2875L18.5409 45.212L22.5426 49.5054C22.9533 49.921 23.4457 50.2428 23.9872 50.4497C24.5126 50.6507 25.0749 50.7312 25.6341 50.6857H25.7642L24.8829 53.548C24.6885 54.1885 24.6586 54.8694 24.7962 55.525C24.9401 56.183 25.2544 56.7894 25.7064 57.2808C25.9086 57.5168 26.5876 58.1807 26.7321 58.3282L26.8187 58.4315C27.2529 58.8751 27.7895 59.1999 28.379 59.3758C29.011 59.5775 29.6843 59.603 30.3292 59.4495L40.4418 56.9709C41.0674 56.8165 41.6442 56.5016 42.1176 56.0562C42.5809 55.6026 42.9196 55.0328 43.0999 54.4037ZM26.1975 55.2004C26.0893 54.7997 26.0893 54.3765 26.1975 53.9758L27.3822 50.0956C27.4191 49.9806 27.4265 49.8578 27.4038 49.7389C27.381 49.6201 27.3288 49.5093 27.2521 49.4169C27.1831 49.3209 27.091 49.2447 26.9847 49.1956C26.8785 49.1465 26.7616 49.1262 26.6454 49.1366H25.4319C25.0836 49.1681 24.7328 49.1195 24.4053 48.9944C24.0778 48.8693 23.7819 48.6709 23.5394 48.4137L19.5088 44.0908L15.3049 40.0187C15.0619 39.7644 14.8704 39.4635 14.7415 39.1335C14.6179 38.7894 14.5734 38.4209 14.6115 38.0565V36.8319C14.6217 36.7132 14.6018 36.5939 14.5537 36.4853C14.5057 36.3768 14.431 36.2827 14.337 36.2122C14.2462 36.1401 14.1395 36.0916 14.0263 36.071C13.913 36.0505 13.7965 36.0584 13.6869 36.0942L9.87304 37.304C9.48554 37.4141 9.07598 37.4141 8.68847 37.304C8.29531 37.2136 7.93191 37.0204 7.63388 36.7433C7.342 36.4577 7.12366 36.1031 6.99823 35.7106C6.89728 35.314 6.89728 34.8975 6.99823 34.5008L9.42523 24.1731C9.51904 23.7749 9.71324 23.4086 9.98864 23.1108C10.2517 22.8169 10.5853 22.5982 10.9565 22.4764L30.1559 16.3535C30.255 16.3141 30.3475 16.2594 30.4304 16.1913L37.0757 10.0389C37.3628 9.77647 37.711 9.59367 38.087 9.50778L54.3826 5.64228C54.7385 5.55347 55.1102 5.55347 55.4661 5.64228L55.885 5.81932L56.304 6.08487C56.3676 6.1575 56.4351 6.22648 56.5062 6.29145L56.6796 6.46849L56.8385 6.71928L56.9396 6.88155L57.0986 7.27993C57.1927 7.6575 57.1927 8.05311 57.0986 8.43068L53.3569 25.2206C53.2694 25.5989 53.0906 25.9489 52.8368 26.2386L46.8127 33.0844C46.7378 33.163 46.6832 33.2593 46.6537 33.3647L40.6585 52.9578C40.5288 53.3396 40.3108 53.6839 40.0228 53.9611C39.7293 54.2397 39.3715 54.4376 38.9827 54.5365L28.8701 57.0004C28.4768 57.1035 28.0644 57.1035 27.6711 57.0004C27.2844 56.8776 26.9358 56.6539 26.6598 56.3513C26.3842 56.0308 26.2038 55.6367 26.1398 55.2152L26.1975 55.2004Z" fill="#1E1E1E"/>
<path fill-rule="evenodd" clip-rule="evenodd" d="M30.9708 23.8622C26.7032 23.8622 23.2435 27.3218 23.2435 31.5895C23.2435 35.8571 26.7032 39.3167 30.9708 39.3167C35.2385 39.3167 38.698 35.8571 38.698 31.5895C38.698 27.3218 35.2385 23.8622 30.9708 23.8622ZM22.2435 31.5895C22.2435 26.7695 26.1509 22.8622 30.9708 22.8622C35.7908 22.8622 39.698 26.7695 39.698 31.5895C39.698 36.4094 35.7908 40.3167 30.9708 40.3167C26.1509 40.3167 22.2435 36.4094 22.2435 31.5895Z" fill="#1E1E1E"/>
</svg>
