<svg width="0" height="0" class="hidden">
  <symbol xmlns="http://www.w3.org/2000/svg" viewBox="0 0 32 34" id="drupal">
    <path fill-rule="evenodd" clip-rule="evenodd" d="M16.0914 0.606016L15.7836 1L15.4758 0.605958L15.7837 0.365503L16.0914 0.606016ZM15.7835 1.64077C15.7064 1.70347 15.6157 1.77764 15.5127 1.86277C15.1415 2.16947 14.6101 2.61812 13.972 3.18384C12.6951 4.31591 10.9941 5.91377 9.29471 7.77873C7.59379 9.64541 5.90447 11.7689 4.64283 13.9517C3.37773 16.1405 2.56667 18.3481 2.56667 20.3931C2.56667 24.3996 4.42767 27.4151 6.95485 29.4415C9.49461 31.478 12.6912 32.5 15.293 32.5H16.269C18.8708 32.5 22.0673 31.478 24.6071 29.4415C27.1342 27.4151 28.9952 24.3996 28.9952 20.3931C28.9952 18.348 28.1845 16.1405 26.9199 13.9516C25.6587 11.7688 23.97 9.64533 22.2698 7.77866C20.5711 5.91371 18.8707 4.31584 17.5943 3.18378C16.9564 2.61806 16.4252 2.16941 16.0542 1.86271C15.9513 1.77761 15.8606 1.70345 15.7835 1.64077ZM15.4758 0.605958C15.476 0.605817 15.4758 0.605958 15.7836 1C16.0914 0.606016 16.0913 0.605875 16.0914 0.606016L16.0946 0.608448L16.1026 0.614774L16.1333 0.638966C16.1601 0.660173 16.1994 0.691476 16.2505 0.732485C16.3527 0.814502 16.5019 0.93536 16.6913 1.09195C17.0701 1.40508 17.6102 1.86129 18.2578 2.43563C19.5523 3.58369 21.2798 5.20682 23.0091 7.10527C24.7367 9.00201 26.4759 11.1844 27.7857 13.4514C29.0921 15.7124 29.9952 18.0987 29.9952 20.3931C29.9952 24.7468 27.9601 28.0347 25.2327 30.2217C22.5178 32.3986 19.1012 33.5 16.269 33.5H15.293C12.4608 33.5 9.04419 32.3986 6.32928 30.2217C3.60181 28.0347 1.56667 24.7468 1.56667 20.3931C1.56667 18.0987 2.47021 15.7123 3.77704 13.4513C5.08732 11.1843 6.82724 9.00194 8.55555 7.1052C10.2854 5.20675 12.0136 3.58363 13.3086 2.43556C13.9565 1.86123 14.4967 1.40502 14.8757 1.09188C15.0652 0.935301 15.2144 0.814442 15.3167 0.732426C15.3678 0.691417 15.4072 0.660114 15.434 0.638907L15.4646 0.614716L15.4727 0.60839L15.4758 0.605958Z"></path>
    <path fill-rule="evenodd" clip-rule="evenodd" d="M16.1785 6.70159L15.8683 7.09375L15.5992 6.67233L15.8992 6.48075L16.1785 6.70159ZM24.4205 15.9846C23.2999 13.6988 21.223 11.3723 19.4595 9.63811C18.5722 8.76565 17.7537 8.03297 17.1568 7.5182C16.8582 7.2607 16.6147 7.05742 16.4454 6.91811C16.3607 6.84846 16.2946 6.79477 16.2493 6.75828L16.1973 6.71659L16.1836 6.70569L16.1785 6.70159C16.1784 6.70151 16.1785 6.70159 15.8683 7.09375C15.5992 6.67233 15.5993 6.67226 15.5992 6.67233L15.598 6.67308L15.5957 6.67457L15.5877 6.67974L15.5587 6.69864C15.5337 6.71498 15.4979 6.73869 15.4527 6.76917C15.3625 6.83009 15.2346 6.91824 15.0819 7.02873C14.7773 7.24906 14.3695 7.5613 13.9619 7.92617C13.557 8.28868 13.1377 8.71616 12.8212 9.16841C12.5125 9.60947 12.2544 10.1408 12.2826 10.6953L12.2828 10.6979C12.2962 10.9364 12.4127 11.1622 12.5242 11.3389C12.6454 11.5309 12.8097 11.7395 13 11.957C13.3813 12.393 13.9064 12.9098 14.5044 13.4697C15.0909 14.0189 15.7587 14.6199 16.4468 15.2391L16.4938 15.2814C17.1996 15.9165 17.9263 16.5711 18.617 17.2161C20.2906 18.8066 21.8622 20.4814 23.3242 22.2324L23.3262 22.2348C23.5102 22.4524 23.7618 22.6668 24.0849 22.6969C24.4543 22.7314 24.7162 22.5149 24.8667 22.3022C25.0127 22.0958 25.106 21.8306 25.1687 21.5621C25.2332 21.2854 25.2738 20.9666 25.2927 20.6254C25.3675 19.2781 25.1133 17.3918 24.4205 15.9846ZM15.841 7.71581C15.7886 7.75247 15.7306 7.79366 15.668 7.83896C15.3815 8.04618 15.0029 8.33641 14.629 8.67119C14.2524 9.00834 13.8953 9.3777 13.6405 9.74177C13.3818 10.1115 13.2732 10.4125 13.2809 10.6345C13.2809 10.6345 13.2809 10.6345 13.2809 10.6345C13.2821 10.6343 13.2946 10.6859 13.3699 10.8053C13.4519 10.9352 13.5787 11.0998 13.7527 11.2987C14.0998 11.6955 14.5948 12.1845 15.1879 12.7398C15.767 13.2821 16.4285 13.8773 17.1198 14.4995L17.1628 14.5381C17.8681 15.1728 18.6021 15.8339 19.3011 16.4867L19.3043 16.4897C21.0056 18.1064 22.6037 19.8093 24.0908 21.5903C24.0972 21.5978 24.1034 21.605 24.1093 21.6117C24.137 21.5454 24.1669 21.4545 24.1948 21.3349C24.2428 21.1292 24.2776 20.8704 24.2943 20.57C24.3619 19.3505 24.1229 17.6441 23.5232 16.4262C22.4807 14.2992 20.5056 12.0693 18.7583 10.3511C17.8901 9.49734 17.0883 8.77958 16.5037 8.27548C16.2294 8.03893 16.0033 7.84969 15.841 7.71581Z"></path>
    <path fill-rule="evenodd" clip-rule="evenodd" d="M9.19405 14.6476C8.47919 15.4309 7.7106 16.5362 7.36647 17.8298L7.36635 17.8302C6.91669 19.5142 7.21667 20.5986 7.59816 21.1598C7.79376 21.4475 8.00089 21.587 8.13589 21.6335C8.17769 21.6479 8.20436 21.6523 8.22001 21.653C8.3523 21.4847 8.48642 21.2835 8.65874 21.0249C8.69446 20.9713 8.73183 20.9153 8.77116 20.8565C9.00092 20.5134 9.28132 20.1048 9.65523 19.6321C10.3593 18.742 11.3832 17.6392 13.0216 16.2978C13.0067 16.2789 12.9909 16.2592 12.9741 16.2385C12.7647 15.9804 12.4505 15.6344 12.0918 15.2678C11.469 14.6313 10.7656 13.9876 10.2846 13.6429C10.2401 13.6753 10.1891 13.714 10.1324 13.7591C9.88428 13.9565 9.54955 14.2581 9.19405 14.6476ZM8.23846 21.6504C8.23891 21.6511 8.23583 21.6527 8.22787 21.653C8.23404 21.6499 8.23802 21.6497 8.23846 21.6504ZM10.1772 12.5726C10.2068 12.5657 10.3483 12.5328 10.5058 12.601L10.5337 12.613L10.56 12.6284C11.1523 12.9755 12.0794 13.8252 12.8065 14.5684C13.1772 14.9472 13.5145 15.3175 13.7506 15.6084C13.8663 15.751 13.9699 15.8894 14.0404 16.0074C14.073 16.062 14.1166 16.1415 14.1426 16.2307C14.1554 16.2746 14.174 16.3537 14.1654 16.4498C14.156 16.5558 14.1094 16.7052 13.9699 16.817L13.9693 16.8175C12.1951 18.2341 11.1384 19.369 10.4395 20.2525C10.0894 20.6952 9.8257 21.079 9.60208 21.4129C9.56685 21.4656 9.53214 21.5177 9.49788 21.5691C9.32115 21.8345 9.15625 22.0821 8.99169 22.2893C8.6822 22.6894 8.18927 22.7095 7.81036 22.5791C7.42521 22.4465 7.05761 22.1434 6.77114 21.722C6.18849 20.8648 5.89495 19.4644 6.4002 17.5723C6.8 16.0698 7.67733 14.826 8.45543 13.9735C8.84645 13.5451 9.21998 13.2071 9.50995 12.9764C9.65398 12.8619 9.78358 12.7689 9.88895 12.7035C9.93989 12.6718 9.99695 12.6392 10.0538 12.6142C10.081 12.6022 10.1239 12.5849 10.1755 12.573C10.176 12.5729 10.1765 12.5728 10.1772 12.5726Z"></path>
    <path fill-rule="evenodd" clip-rule="evenodd" d="M16.0914 17.4185L15.7835 17.8125L15.4759 17.4184L15.7837 17.1781L16.0914 17.4185ZM21.3588 24.9891C21.3577 24.0622 20.9947 23.1238 20.4988 22.2651C19.9987 21.3991 19.339 20.5725 18.6909 19.8608C18.0412 19.1473 17.3932 18.5384 16.9083 18.1084C16.6656 17.893 16.4629 17.7218 16.3202 17.6038C16.2488 17.5448 16.1925 17.4991 16.1535 17.4679L16.1085 17.432L16.0963 17.4224L16.093 17.4197L16.0914 17.4185C16.0913 17.4184 16.0914 17.4185 15.7835 17.8125C15.4759 17.4184 15.476 17.4183 15.4759 17.4184L15.471 17.4222L15.4588 17.4318L15.4137 17.4677C15.3747 17.499 15.3183 17.5447 15.2469 17.6037C15.104 17.7216 14.9011 17.8929 14.6581 18.1082C14.1728 18.5383 13.5241 19.1471 12.8738 19.8606C12.225 20.5723 11.5646 21.3989 11.064 22.2649C10.5676 23.1236 10.2041 24.0621 10.203 24.9891C10.1814 26.3354 10.744 27.6255 11.7525 28.5874C12.7604 29.5488 14.135 30.1092 15.5803 30.1629L15.5896 30.1633H15.9722L15.9815 30.1629C17.4268 30.1092 18.8014 29.5488 19.8094 28.5874C20.8179 27.6255 21.3805 26.3354 21.3588 24.9891ZM15.7834 18.4581C15.659 18.5623 15.5019 18.6966 15.3213 18.8567C14.854 19.2707 14.2326 19.8543 13.6128 20.5342C12.9914 21.2159 12.3817 21.9836 11.9297 22.7654C11.4743 23.5531 11.203 24.3144 11.203 24.9934V25.0019C11.1851 26.0542 11.6232 27.0821 12.4427 27.8638C13.2619 28.6452 14.3963 29.1161 15.6084 29.1633H15.9534C17.1655 29.1161 18.3 28.6451 19.1192 27.8638C19.9387 27.0821 20.3768 26.0542 20.3589 25.0019L20.3587 24.9934C20.3587 24.3142 20.0877 23.5529 19.6328 22.7652C19.1813 21.9834 18.5722 21.2157 17.9515 20.534C17.3323 19.8541 16.7115 19.2705 16.2448 18.8565C16.0644 18.6965 15.9076 18.5623 15.7834 18.4581Z"></path>
  </symbol>
  <symbol xmlns="http://www.w3.org/2000/svg" viewBox="0 0 32 32" id="outsource-services">
    <path fill-rule="evenodd" clip-rule="evenodd" d="M14.6198 2.0984C14.6198 1.82226 14.8436 1.5984 15.1198 1.5984C21.4821 1.5984 26.8517 5.71547 28.3347 11.3151C28.4054 11.5821 28.2464 11.8558 27.9794 11.9265C27.7125 11.9972 27.4388 11.8381 27.3681 11.5711C26.008 6.43571 21.0555 2.5984 15.1198 2.5984C14.8436 2.5984 14.6198 2.37454 14.6198 2.0984ZM2.897 9.91414C3.15602 10.0099 3.28839 10.2975 3.19266 10.5565C2.74385 11.7708 2.5 13.075 2.5 14.4334C2.5 20.3624 7.162 25.3088 13.2865 26.1446C13.5601 26.1819 13.7516 26.434 13.7143 26.7076C13.6769 26.9812 13.4249 27.1727 13.1513 27.1354C6.5857 26.2395 1.5 20.9154 1.5 14.4334C1.5 12.9543 1.7657 11.5328 2.25467 10.2098C2.3504 9.95078 2.63798 9.81841 2.897 9.91414Z"></path>
    <path fill-rule="evenodd" clip-rule="evenodd" d="M8.96774 1.56641C6.53141 1.56641 4.56451 3.52149 4.56451 5.92321C4.56451 8.32493 6.53141 10.28 8.96774 10.28C11.4041 10.28 13.371 8.32493 13.371 5.92321C13.371 3.52149 11.4041 1.56641 8.96774 1.56641ZM3.56451 5.92321C3.56451 2.96026 5.98811 0.566406 8.96774 0.566406C11.9474 0.566406 14.371 2.96026 14.371 5.92321C14.371 8.88617 11.9474 11.28 8.96774 11.28C5.98811 11.28 3.56451 8.88617 3.56451 5.92321Z"></path>
    <path fill-rule="evenodd" clip-rule="evenodd" d="M21.871 22.6992C20.0047 22.6992 18.5 24.1965 18.5 26.0335C18.5 27.8706 20.0047 29.3679 21.871 29.3679C23.7372 29.3679 25.2419 27.8706 25.2419 26.0335C25.2419 24.1965 23.7372 22.6992 21.871 22.6992ZM17.5 26.0335C17.5 23.6353 19.4614 21.6992 21.871 21.6992C24.2805 21.6992 26.2419 23.6353 26.2419 26.0335C26.2419 28.4318 24.2805 30.3679 21.871 30.3679C19.4614 30.3679 17.5 28.4318 17.5 26.0335Z"></path>
    <path fill-rule="evenodd" clip-rule="evenodd" d="M26.7742 14.0395C25.3355 14.0395 24.1774 15.1934 24.1774 16.6069C24.1774 18.0204 25.3355 19.1744 26.7742 19.1744C28.2129 19.1744 29.371 18.0204 29.371 16.6069C29.371 15.1934 28.2129 14.0395 26.7742 14.0395ZM23.1774 16.6069C23.1774 14.6322 24.7923 13.0395 26.7742 13.0395C28.7562 13.0395 30.371 14.6322 30.371 16.6069C30.371 18.5816 28.7562 20.1744 26.7742 20.1744C24.7923 20.1744 23.1774 18.5816 23.1774 16.6069Z"></path>
  </symbol>
  <symbol xmlns="http://www.w3.org/2000/svg" viewBox="0 0 32 32" id="qa-testing">
    <path fill-rule="evenodd" clip-rule="evenodd" d="M10.0066 1.56641C5.87013 1.56641 2.5 4.98956 2.5 9.23319V21.6996C2.5 25.9432 5.87013 29.3664 10.0066 29.3664H22.2286C26.3652 29.3664 29.7353 25.9432 29.7353 21.6996V9.23319C29.7353 4.98956 26.3652 1.56641 22.2286 1.56641H10.0066ZM1.5 9.23319C1.5 4.45604 5.29927 0.566406 10.0066 0.566406H22.2286C26.936 0.566406 30.7353 4.45604 30.7353 9.23319V21.6996C30.7353 26.4768 26.936 30.3664 22.2286 30.3664H10.0066C5.29927 30.3664 1.5 26.4768 1.5 21.6996V9.23319Z"></path>
    <path fill-rule="evenodd" clip-rule="evenodd" d="M9.5 30.0027L9.34326 1.0027L10.3432 0.997298L10.5 29.9973L9.5 30.0027Z"></path>
    <path fill-rule="evenodd" clip-rule="evenodd" d="M23.5187 8.13597C23.7025 8.34206 23.6845 8.65813 23.4784 8.84192L18.8395 12.9787L16.3537 10.7619C16.1477 10.5781 16.1296 10.2621 16.3134 10.056C16.4971 9.84988 16.8132 9.8318 17.0193 10.0156L18.8395 11.6388L22.8128 8.09558C23.0189 7.91179 23.335 7.92987 23.5187 8.13597Z"></path>
    <path fill-rule="evenodd" clip-rule="evenodd" d="M23.5187 18.8C23.7025 19.0061 23.6845 19.3222 23.4784 19.506L18.8395 23.6427L16.3537 21.426C16.1477 21.2422 16.1296 20.9261 16.3134 20.72C16.4971 20.5139 16.8132 20.4959 17.0193 20.6796L18.8395 22.3029L22.8128 18.7596C23.0189 18.5758 23.335 18.5939 23.5187 18.8Z"></path>
  </symbol>
  <symbol xmlns="http://www.w3.org/2000/svg" viewBox="0 0 32 32" id="ui-ux">
    <path opacity="0.06" fill-rule="evenodd" clip-rule="evenodd" d="M1.66346 22.8804C1.75786 22.6209 2.04475 22.487 2.30426 22.5814L15.1845 27.2664C16.0694 27.5749 17.0655 27.5749 17.9504 27.2664L30.7626 22.6103C31.0221 22.516 31.309 22.6499 31.4033 22.9095C31.4976 23.169 31.3637 23.4558 31.1041 23.5502L18.2832 28.2095C17.183 28.5939 15.9519 28.5939 14.8517 28.2094L14.8458 28.2073L1.96243 23.5212C1.70292 23.4268 1.56907 23.1399 1.66346 22.8804Z"></path>
    <path fill-rule="evenodd" clip-rule="evenodd" d="M1.66346 16.814C1.75786 16.5545 2.04475 16.4206 2.30426 16.515L15.1845 21.2C16.0694 21.5085 17.0655 21.5085 17.9504 21.2L30.7626 16.5439C31.0221 16.4496 31.309 16.5835 31.4033 16.843C31.4976 17.1026 31.3637 17.3894 31.1041 17.4838L18.2832 22.1431C17.183 22.5275 15.9519 22.5275 14.8517 22.143L14.8458 22.1409L1.96243 17.4548C1.70292 17.3604 1.56907 17.0735 1.66346 16.814Z"></path>
    <path fill-rule="evenodd" clip-rule="evenodd" d="M1.66346 22.7476C1.75786 22.4881 2.04475 22.3542 2.30426 22.4486L15.1845 27.1336C16.0695 27.4421 17.0656 27.4421 17.9505 27.1336L30.7626 22.4775C31.0221 22.3832 31.309 22.5171 31.4033 22.7766C31.4976 23.0362 31.3637 23.323 31.1041 23.4174L18.2832 28.0766C17.183 28.4611 15.9519 28.4611 14.8517 28.0766L14.8458 28.0745L1.96243 23.3884C1.70292 23.294 1.56907 23.0071 1.66346 22.7476Z"></path>
    <path fill-rule="evenodd" clip-rule="evenodd" d="M15.1938 3.85183L3.87568 8.48403L3.84092 8.49274C3.49466 8.57945 3.19064 8.77276 2.97371 9.0394C2.75705 9.3057 2.63867 9.63086 2.63351 9.96475C2.62835 10.2986 2.73661 10.6268 2.94472 10.899C3.15308 11.1714 3.45075 11.3733 3.79401 11.4699L3.82246 11.4779L15.364 16.2552C16.1316 16.5596 16.9934 16.5596 17.761 16.2552L29.2419 11.5072L29.2706 11.4991C29.6103 11.404 29.9057 11.2057 30.1142 10.9377C30.3224 10.67 30.4333 10.3466 30.4333 10.0162C30.4333 9.68586 30.3224 9.36247 30.1142 9.09477C29.9057 8.82674 29.6103 8.62848 29.2706 8.53333L29.2449 8.52612L17.5389 3.85333C17.5383 3.85308 17.5376 3.85284 17.537 3.8526C16.7855 3.5605 15.9454 3.56025 15.1938 3.85183ZM14.827 2.92149C15.8136 2.53728 16.9152 2.53728 17.9018 2.92149L17.9057 2.92302L29.5673 7.5781C30.0977 7.73268 30.5666 8.04767 30.9035 8.48083C31.2464 8.92164 31.4333 9.46043 31.4333 10.0162C31.4333 10.572 31.2464 11.1108 30.9035 11.5516C30.5673 11.9839 30.0996 12.2985 29.5704 12.4534L18.1337 17.1833C17.1269 17.5836 15.9981 17.5836 14.9914 17.1832L14.9849 17.1806L3.49322 12.4239C2.95842 12.2666 2.48673 11.9463 2.15037 11.5064C1.8075 11.0581 1.62495 10.511 1.63363 9.9493C1.64231 9.38759 1.84167 8.84628 2.198 8.40831C2.54619 7.98034 3.02484 7.67455 3.56151 7.5321L14.827 2.92149Z"></path>
  </symbol>
  <symbol xmlns="http://www.w3.org/2000/svg" viewBox="0 0 32 32" id="wp">
    <path fill-rule="evenodd" clip-rule="evenodd" d="M9.06995 28.1689C9.24947 28.6679 9.71917 29 10.2448 29H12.1275C12.661 29 13.1359 28.6579 13.3096 28.1485L16.546 18.6513L19.9876 28.1707C20.1678 28.6686 20.637 29 21.162 29H23.1143C23.6486 29 24.1238 28.6571 24.297 28.1468L28.8414 14.7524C29.6319 12.7499 30 10.9809 30 9.18745C30 8.81483 29.9809 8.43864 29.9402 8.01006C29.5694 3.86947 27.5141 3.00009 25.8552 3L25.8287 3.00027C23.8225 3.04302 22.5806 4.844 22.5806 6.4879C22.5806 7.85295 23.2537 8.9497 23.9652 10.1091L24.136 10.3884C24.6801 11.3525 25.2082 12.4253 25.2082 13.9804C25.2082 15.0277 24.8079 16.3181 24.2539 18.1043L24.1435 18.4604C24.1431 18.462 24.0711 18.7049 23.9746 19.0303C23.7774 19.6952 23.478 20.7046 23.478 20.7046L19.2171 7.9051C19.046 7.3912 18.569 7.04508 18.0321 7.04508H14.1379C13.7299 7.04508 13.3474 7.24634 13.1136 7.58398C12.8797 7.92161 12.8237 8.3534 12.9637 8.74039L14.9087 14.1198L12.6496 20.9608L8.30185 7.90519C8.13055 7.39129 7.65378 7.04517 7.11682 7.04517H3.25016C2.84242 7.04517 2.46032 7.24599 2.22626 7.58326C1.9923 7.92054 1.93591 8.3518 2.07521 8.7387L9.06995 28.1689ZM3.04792 8.15324C3.09667 8.0831 3.17293 8.04517 3.25016 8.04517H7.11682C7.21785 8.04517 7.31611 8.11059 7.35308 8.22115L12.6536 24.1377L15.9668 14.105L13.9041 8.40037C13.9041 8.40038 13.9041 8.40037 13.9041 8.40037C13.874 8.31707 13.8865 8.22425 13.9356 8.1534C13.9843 8.08317 14.0607 8.04509 14.1379 8.04509H18.0321C18.1334 8.04509 18.2316 8.11078 18.2683 8.22103L23.5329 24.0356L24.4367 20.9889L24.8372 19.6387C24.9533 19.2472 25.0633 18.8763 25.0986 18.7564L25.209 18.4005C25.224 18.3522 25.2389 18.3041 25.2538 18.2563C25.7689 16.5966 26.2082 15.1812 26.2082 13.9804C26.2082 12.1659 25.5789 10.9104 25.0069 9.89688L24.9983 9.88162L24.8189 9.5883L24.8181 9.58698C24.0809 8.3857 23.5806 7.52606 23.5806 6.4879C23.5806 5.25239 24.513 4.03101 25.8458 4.00013L25.8485 4.0001L25.8545 4.00002C25.8554 4.00001 25.8559 4 25.8563 4C26.5127 4.00024 27.1615 4.1694 27.6891 4.67462C28.2244 5.18719 28.772 6.17649 28.9441 8.09925L28.9446 8.10471C28.9828 8.50646 29 8.85076 29 9.18745C29 10.8329 28.6645 12.4768 27.9112 14.3852L27.9023 14.4079L23.35 27.8255C23.35 27.8255 23.35 27.8255 23.35 27.8255C23.3128 27.9349 23.2149 28 23.1143 28H21.162C21.0632 28 20.9667 27.9373 20.928 27.8307C20.928 27.8308 20.928 27.8306 20.928 27.8307L16.5181 15.6329L12.3631 27.8258C12.3631 27.8257 12.3631 27.8258 12.3631 27.8258C12.3258 27.935 12.2279 28 12.1275 28H10.2448C10.1456 28 10.0492 27.9369 10.0109 27.8304L3.0161 8.39998C2.98618 8.31689 2.9988 8.22416 3.04792 8.15324Z"></path>
  </symbol>
  <symbol xmlns="http://www.w3.org/2000/svg" viewBox="0 0 240 240" id="start-project-btn">
    <path fill-rule="evenodd" clip-rule="evenodd" d="M127.627 231.802C128.233 232.344 129.291 232.802 130.801 233.176C131.492 233.331 132.168 233.551 132.818 233.833C133.204 233.999 133.542 234.259 133.802 234.589C134.029 234.936 134.161 235.335 134.186 235.748C134.228 236.042 134.197 236.341 134.098 236.62C133.998 236.898 133.832 237.149 133.614 237.35C133.169 237.765 132.519 238.016 131.664 238.101C130.51 238.2 129.348 238.067 128.247 237.709L127.885 239.166C129.139 239.562 130.462 239.693 131.769 239.549C133.094 239.415 134.128 238.992 134.87 238.281C135.23 237.942 135.504 237.523 135.669 237.057C135.835 236.591 135.887 236.093 135.822 235.603C135.772 234.698 135.388 233.843 134.744 233.205C134.127 232.629 133.148 232.17 131.809 231.837C131.074 231.671 130.353 231.444 129.655 231.158C129.248 230.997 128.886 230.738 128.601 230.405C128.358 230.067 128.217 229.667 128.193 229.251C128.146 228.923 128.181 228.588 128.293 228.276C128.406 227.964 128.594 227.684 128.84 227.462C129.344 227.001 130.135 226.716 131.214 226.609C131.884 226.543 132.559 226.546 133.228 226.62C133.879 226.686 134.522 226.814 135.149 227.003L134.993 225.445C134.065 225.109 132.777 225.024 131.128 225.187C129.607 225.337 128.437 225.799 127.619 226.571C127.217 226.949 126.911 227.419 126.729 227.94C126.547 228.461 126.493 229.019 126.573 229.565C126.622 230.419 127 231.221 127.627 231.802V231.802ZM118.841 238.46L114.42 238.388L114.397 239.831L124.862 240L124.886 238.559L120.465 238.487L120.668 225.968L119.044 225.941L118.841 238.46ZM102.125 224.635L106.049 239.174L107.407 239.321L114.428 225.989L112.795 225.81L110.6 230.037L105.037 229.426L103.795 224.82L102.125 224.635ZM109.871 231.427L107.765 235.547C107.455 236.177 107.182 236.823 106.946 237.484C106.812 236.668 106.67 235.979 106.521 235.41L105.381 230.933L109.871 231.427ZM94.5241 228.844L92.5265 222.427L90.6555 222L92.9487 228.962C90.9791 229.176 89.7879 230.184 89.3751 231.985C89.0806 233.27 89.2588 234.323 89.9098 235.145C90.5607 235.966 91.7211 236.569 93.391 236.953L97.124 237.808L100.245 224.197L98.6621 223.835L97.3643 229.495L94.5241 228.844ZM95.8589 236.057L93.8015 235.587C92.6287 235.316 91.8224 234.922 91.3827 234.404C90.9433 233.887 90.8266 233.176 91.034 232.277C91.2377 231.389 91.6509 230.783 92.2738 230.458C92.8967 230.134 93.7668 230.1 94.8841 230.356L97.0531 230.855L95.8589 236.057ZM80.3449 231.676L76.1681 230.225L75.6949 231.585L85.5824 235.021L86.0559 233.659L81.8787 232.207L85.9877 220.38L84.4539 219.846L80.3449 231.676ZM63.9618 226.043L67.1566 227.746L73.7257 215.423L72.293 214.661L69.7095 219.506L68.261 218.733C66.6767 217.888 65.28 217.574 64.0707 217.792C62.8617 218.012 61.9246 218.745 61.2595 219.991C59.9834 222.384 60.8848 224.401 63.9637 226.043H63.9618ZM66.3838 225.743L64.7824 224.89C63.6531 224.286 62.9279 223.643 62.6069 222.961C62.2859 222.279 62.3426 221.529 62.777 220.713C63.2598 219.809 63.894 219.303 64.6794 219.195C65.4648 219.086 66.4931 219.372 67.7642 220.05L69.0537 220.737L66.3838 225.743ZM56.4067 211.917L56.911 205.216L55.3283 204.13L54.897 211.448C52.9866 210.922 51.5082 211.42 50.4621 212.942C49.7153 214.028 49.4931 215.072 49.7955 216.075C50.0983 217.081 50.9552 218.068 52.3664 219.036L55.522 221.206L63.4336 209.701L62.0959 208.781L58.8056 213.567L56.4067 211.917ZM54.9914 219.114L53.2524 217.92C52.261 217.236 51.6563 216.573 51.4385 215.93C51.2207 215.287 51.3734 214.584 51.8967 213.822C52.4128 213.073 53.0201 212.66 53.7186 212.59C54.4171 212.521 55.2387 212.805 56.183 213.454L58.0167 214.715L54.9914 219.114ZM37.5884 204.9C37.5777 206.6 38.3191 208.12 39.8125 209.46C41.3484 210.837 42.9512 211.433 44.6208 211.249C46.2903 211.065 47.8837 210.127 49.4009 208.435C50.931 206.729 51.7 205.034 51.7078 203.351C51.7157 201.668 50.9536 200.141 49.4216 198.769C47.9237 197.426 46.3267 196.854 44.6307 197.052C42.9347 197.25 41.3408 198.182 39.8492 199.847C38.3528 201.516 37.5991 203.2 37.5882 204.9H37.5884ZM44.3877 209.642C43.1359 209.833 41.9338 209.411 40.7814 208.379C39.6342 207.351 39.0918 206.213 39.1542 204.964C39.2166 203.715 39.8748 202.391 41.1287 200.994C42.3952 199.581 43.647 198.775 44.8842 198.577C46.1213 198.378 47.3165 198.796 48.4696 199.829C49.6121 200.853 50.1571 201.997 50.1045 203.262C50.052 204.527 49.3946 205.864 48.1324 207.272C46.8879 208.663 45.6396 209.453 44.3874 209.642H44.3877ZM44.0583 189.991C43.1548 189.992 42.2581 190.402 41.368 191.221L31.1929 200.587L32.2928 201.782L42.5666 192.325C42.975 191.895 43.5247 191.626 44.1151 191.568C44.383 191.568 44.6474 191.629 44.8888 191.745C45.1302 191.861 45.3425 192.03 45.51 192.239C45.8347 192.589 46.1096 192.983 46.3268 193.408L47.3462 192.469C47.1857 192.011 46.9233 191.596 46.5787 191.254C45.8017 190.411 44.9614 189.99 44.058 189.991H44.0583ZM33.021 183.169L36.839 188.003L32.8067 191.189L29.2195 186.648L28.0952 187.535L31.6825 192.077L28.1537 194.864L24.3344 190.03L23.2027 190.924L28.0268 197.033L38.9844 188.378L34.16 182.27L33.021 183.169ZM17.374 178.324L15.8273 178.481C15.9918 179.795 16.456 181.054 17.1841 182.161C17.822 183.239 18.7357 184.128 19.8311 184.736C20.8596 185.285 22.0297 185.511 23.1885 185.384C24.4863 185.232 25.7307 184.78 26.8227 184.062C28.7719 182.842 29.979 181.428 30.444 179.819C30.909 178.21 30.596 176.534 29.5051 174.79C28.8874 173.742 28.0881 172.811 27.1446 172.043L25.9375 172.798C26.787 173.543 27.5316 174.4 28.151 175.345C28.9915 176.689 29.2169 177.988 28.827 179.242C28.4372 180.497 27.4675 181.609 25.9179 182.578C24.412 183.521 22.9903 183.887 21.6528 183.676C20.3153 183.465 19.2396 182.709 18.4255 181.408C17.8507 180.471 17.4918 179.418 17.3748 178.325V178.325L17.374 178.324ZM12.8962 170.712L10.9742 166.73L9.67534 167.357L14.2253 176.784L15.5242 176.157L13.6019 172.175L24.8779 166.732L24.1721 165.27L12.8962 170.712ZM8.25338 128.428C7.71689 129.04 7.26678 130.101 6.90303 131.612C6.75299 132.306 6.53742 132.983 6.25924 133.636C6.09579 134.022 5.83812 134.362 5.50976 134.624C5.16627 134.853 4.76851 134.988 4.35631 135.016C4.06337 135.06 3.76409 135.032 3.4843 134.935C3.2045 134.837 2.9526 134.673 2.75032 134.457C2.33186 134.015 2.07701 133.367 1.98581 132.512C1.87748 131.359 2.00154 130.196 2.35064 129.092L0.89138 128.739C0.504274 129.997 0.383944 131.322 0.538096 132.629C0.679551 133.952 1.10964 134.982 1.82836 135.718C2.1688 136.076 2.58985 136.348 3.05645 136.51C3.52305 136.672 4.02168 136.721 4.51081 136.651C5.41636 136.596 6.26867 136.205 6.90115 135.554C7.4752 134.933 7.92433 133.952 8.24855 132.611C8.40935 131.874 8.63105 131.151 8.91139 130.451C9.07088 130.043 9.32704 129.679 9.65791 129.392C9.99461 129.147 10.3938 129.003 10.8092 128.976C11.137 128.927 11.4719 128.959 11.7844 129.069C12.0969 129.18 12.3773 129.366 12.6011 129.61C13.0677 130.111 13.3584 130.9 13.4732 131.976C13.5435 132.646 13.5448 133.322 13.4772 133.993C13.4164 134.644 13.292 135.288 13.1059 135.915L14.6634 135.749C14.9931 134.817 15.07 133.528 14.8941 131.882C14.732 130.362 14.2618 129.196 13.4834 128.383C13.1028 127.983 12.6313 127.681 12.1089 127.503C11.5865 127.324 11.0287 127.275 10.483 127.358C9.62943 127.413 8.8303 127.797 8.25338 128.428V128.428ZM1.51343 120.013L1.44182 115.591L0 115.615L0.16952 126.081L1.61162 126.058L1.53999 121.636L14.059 121.433L14.0322 119.81L1.51343 120.013ZM15.2363 102.882L0.728278 106.91L0.588801 108.269L13.9713 115.194L14.1392 113.56L9.89719 111.396L10.4691 105.829L15.0633 104.553L15.2363 102.882ZM8.50205 110.677L4.36623 108.601C3.7347 108.295 3.08587 108.026 2.42305 107.796C3.2378 107.656 3.92818 107.509 4.49418 107.356L8.96396 106.183L8.50205 110.677ZM10.9739 95.3075L17.3745 93.2634L17.7901 91.3892L10.8425 93.7331C10.6134 91.7651 9.59755 90.5812 7.79494 90.1815C6.50736 89.8963 5.4553 90.0821 4.63876 90.7389C3.82222 91.3958 3.22868 92.56 2.85815 94.2315L2.02954 97.9707L15.6615 100.992L16.0129 99.4071L10.3438 98.1504L10.9739 95.3075ZM3.76991 96.6943L4.22593 94.6339C4.48613 93.459 4.8741 92.6499 5.38985 92.2065C5.90559 91.7632 6.61412 91.6414 7.51543 91.8412C8.40439 92.0379 9.01323 92.4468 9.34192 93.0679C9.67061 93.689 9.71093 94.5587 9.46289 95.6771L8.9814 97.85L3.76991 96.6943ZM8.03959 81.149L9.46129 76.9616L8.09565 76.4981L4.73266 86.4107L6.0983 86.8742L7.52 82.6866L19.3765 86.7104L19.8982 85.1728L8.03959 81.149ZM13.5526 64.7249L11.8728 67.9313L24.2414 74.4108L24.9948 72.9728L20.1302 70.4244L20.8926 68.9691C21.7257 67.3788 22.0292 65.9798 21.803 64.7721C21.5768 63.5644 20.8375 62.6327 19.5851 61.9769C17.1827 60.7183 15.1719 61.6343 13.5526 64.7249V64.7249ZM13.8699 67.1448L14.7119 65.5371C15.3058 64.4035 15.9434 63.6737 16.6245 63.3477C17.3057 63.0217 18.055 63.0726 18.8724 63.5003C19.7803 63.976 20.291 64.6065 20.4044 65.3918C20.5177 66.177 20.2406 67.207 19.5728 68.4817L18.8947 69.7763L13.8699 67.1448ZM27.6231 57.068L34.3271 57.524L35.4033 55.9343L28.0818 55.5561C28.5934 53.6426 28.0849 52.1679 26.556 51.1319C25.4652 50.3929 24.4186 50.1783 23.4162 50.4881C22.4139 50.7978 21.4329 51.6618 20.4733 53.0802L18.3273 56.2514L29.8887 64.08L30.7991 62.7355L25.99 59.4787L27.6231 57.068ZM20.4148 55.705L21.5981 53.9571C22.2728 52.9608 22.9314 52.3514 23.5739 52.129C24.2165 51.9065 24.9201 52.0542 25.6848 52.5721C26.4387 53.0827 26.8543 53.687 26.9313 54.3849C27.0084 55.0829 26.7257 55.9064 26.0831 56.8555L24.8355 58.6981L20.4148 55.705ZM34.505 38.1974C32.8045 38.199 31.2902 38.9513 29.9622 40.4542C28.5967 42 28.0116 43.6071 28.2071 45.2754C28.4026 46.9438 29.3521 48.5304 31.0556 50.0353C32.7734 51.553 34.4734 52.3095 36.1555 52.3047C37.8376 52.2998 39.3595 51.5268 40.7213 49.9856C42.0534 48.4779 42.6141 46.8768 42.4035 45.1824C42.1928 43.4879 41.25 41.9009 39.5751 40.4212C37.8957 38.9369 36.2056 38.1953 34.505 38.1963V38.1974ZM29.8123 45.0308C29.6132 43.7799 30.0259 42.5747 31.0502 41.4153C32.0696 40.2608 33.2038 39.7102 34.4529 39.7637C35.7021 39.8172 37.03 40.4658 38.4369 41.7096C39.8586 42.9659 40.6732 44.2124 40.8806 45.449C41.0881 46.6856 40.6795 47.8838 39.655 49.0435C38.6389 50.1934 37.498 50.7467 36.2325 50.7032C34.9669 50.6597 33.6257 50.0119 32.2088 48.7597C30.8109 47.5238 30.012 46.2805 29.8123 45.0297V45.0308ZM49.461 44.56C49.4535 43.6566 49.0369 42.7624 48.2112 41.8775L38.7725 31.7701L37.5858 32.8783L47.116 43.0836C47.5493 43.4889 47.822 44.0368 47.8843 44.6268C47.886 44.8946 47.8276 45.1594 47.7135 45.4016C47.5993 45.6439 47.4323 45.8574 47.2246 46.0265C46.8768 46.354 46.4853 46.6317 46.0612 46.8517L47.0066 47.8638C47.4631 47.7 47.8765 47.4347 48.2155 47.0877C49.0534 46.3055 49.4685 45.4626 49.461 44.5589V44.56ZM56.2017 33.4746L51.3953 37.3275L48.1817 33.3182L52.6977 29.6968L51.8017 28.579L47.2855 32.2004L44.4722 28.6904L49.2789 24.8375L48.377 23.7122L42.3034 28.5804L51.0351 39.4745L57.1087 34.6063L56.2017 33.4746ZM60.9317 17.7927L60.7635 16.2471C59.4504 16.4211 58.1947 16.8944 57.0934 17.6304C56.0202 18.2764 55.1385 19.1966 54.5389 20.2963C53.9975 21.3287 53.7802 22.5004 53.9152 23.6583C54.0766 24.9549 54.5383 26.1961 55.2637 27.2829C56.4976 29.2223 57.9207 30.4188 59.5328 30.8723C61.145 31.3258 62.8189 31.0007 64.5546 29.897C65.5986 29.2714 66.523 28.4651 67.2846 27.5157L66.5209 26.3148C65.7821 27.1698 64.9308 27.9207 63.9902 28.5469C62.6524 29.3976 61.3549 29.6323 60.0977 29.251C58.8406 28.8697 57.7215 27.9084 56.7406 26.3671C55.7877 24.8681 55.4116 23.449 55.6124 22.1099C55.8132 20.7708 56.5612 19.6894 57.8563 18.8657C58.789 18.284 59.8396 17.9174 60.9317 17.7927V17.7927ZM68.5102 13.2593L72.4783 11.3083L71.8421 10.014L62.4486 14.6327L63.0849 15.9268L67.0531 13.9758L72.5776 25.212L74.0347 24.4958L68.5102 13.2593ZM110.763 8.30957C110.148 7.77736 109.083 7.33475 107.569 6.98173C106.875 6.83692 106.196 6.62629 105.541 6.35269C105.154 6.19202 104.812 5.93685 104.549 5.61044C104.317 5.26899 104.178 4.87249 104.148 4.46072C104.102 4.1682 104.127 3.86883 104.222 3.58843C104.318 3.30803 104.48 3.05502 104.695 2.85122C105.134 2.42954 105.78 2.17023 106.634 2.0733C107.786 1.95674 108.95 2.07249 110.057 2.41371L110.399 0.952017C109.139 0.573379 107.814 0.461914 106.508 0.624752C105.186 0.775508 104.159 1.21303 103.428 1.9373C103.072 2.28039 102.804 2.70352 102.645 3.17145C102.486 3.63937 102.441 4.13852 102.514 4.6273C102.576 5.53205 102.973 6.38127 103.627 7.00936C104.253 7.57877 105.237 8.02084 106.58 8.33559C107.318 8.49113 108.042 8.70755 108.744 8.98261C109.153 9.13909 109.518 9.3924 109.808 9.72083C110.055 10.0558 110.202 10.454 110.232 10.8692C110.284 11.1968 110.254 11.5321 110.145 11.8455C110.037 12.159 109.853 12.4409 109.61 12.6665C109.112 13.1365 108.325 13.4328 107.249 13.5555C106.58 13.6307 105.904 13.6369 105.233 13.574C104.581 13.5177 103.937 13.398 103.308 13.2167L103.486 14.7725C104.42 15.0955 105.709 15.1632 107.354 14.9756C108.872 14.8026 110.035 14.324 110.843 13.5396C111.24 13.1562 111.539 12.6824 111.714 12.1586C111.888 11.6347 111.934 11.0764 111.846 10.5312C111.786 9.67837 111.398 8.88207 110.763 8.30957V8.30957ZM119.214 1.51373L123.635 1.44211L123.612 0L113.146 0.169801L113.169 1.61191L117.591 1.54002L117.794 14.0595L119.417 14.0327L119.214 1.51373ZM136.359 15.1102L132.225 0.631457L130.865 0.501626L124.037 13.934L125.673 14.0901L127.805 9.83242L133.377 10.3644L134.686 14.9514L136.359 15.1102ZM128.515 8.43082L130.562 4.28019C130.863 3.64684 131.127 2.99607 131.35 2.33136C131.498 3.14469 131.648 3.83356 131.807 4.39903L133.011 8.86028L128.515 8.43082ZM143.899 10.7914L145.991 17.1771L147.869 17.5795L145.474 10.65C147.44 10.4068 148.617 9.38238 149.004 7.57671C149.277 6.28804 149.083 5.23739 148.422 4.42477C147.76 3.61216 146.591 3.02666 144.916 2.66828L141.171 1.86675L138.25 15.5207L139.835 15.8605L141.05 10.1822L143.899 10.7914ZM142.461 3.59749L144.524 4.0393C145.702 4.29128 146.514 4.67344 146.96 5.1858C147.406 5.69815 147.533 6.40571 147.341 7.30846C147.15 8.19904 146.746 8.81084 146.128 9.14382C145.51 9.47681 144.64 9.52349 143.518 9.28385L141.343 8.81817L142.461 3.59749ZM158.03 7.75215L162.228 9.14195L162.682 7.77387L152.746 4.48379L152.292 5.85186L156.49 7.24166L152.555 19.1281L154.095 19.6377L158.03 7.75215ZM174.495 13.144L171.276 11.4875L164.889 23.9032L166.332 24.6462L168.843 19.7641L170.305 20.5152C171.901 21.3368 173.302 21.63 174.509 21.3951C175.715 21.1601 176.641 20.414 177.288 19.1568C178.53 16.7452 177.599 14.7411 174.495 13.1445V13.144ZM172.078 13.4787L173.693 14.3103C174.83 14.8958 175.565 15.528 175.895 16.2068C176.226 16.8857 176.181 17.6354 175.759 18.4561C175.289 19.3682 174.662 19.8835 173.878 20.002C173.094 20.1206 172.062 19.8509 170.783 19.193L169.482 18.5242L172.078 13.4787ZM182.258 27.1613L181.85 33.8676L183.449 34.9325L183.774 27.6093C185.692 28.1072 187.163 27.588 188.186 26.0516C188.92 24.955 189.127 23.9069 188.809 22.9074C188.49 21.9079 187.619 20.9333 186.196 19.9835L183.009 17.8593L175.262 29.4777L176.614 30.3782L179.836 25.5465L182.258 27.1613ZM183.57 19.943L185.327 21.1137C186.328 21.7811 186.943 22.4353 187.17 23.0764C187.395 23.7176 187.252 24.4222 186.741 25.1902C186.236 25.9481 185.635 26.3684 184.938 26.451C184.24 26.5336 183.414 26.2565 182.459 25.6194L180.608 24.3855L183.57 19.943ZM201.18 33.9089C201.167 32.2086 200.404 30.6997 198.892 29.3825C197.336 28.0278 195.725 27.4542 194.058 27.6616C192.392 27.8691 190.812 28.83 189.318 30.5445C187.814 32.2731 187.07 33.9785 187.087 35.6606C187.104 37.3427 187.887 38.8591 189.436 40.2098C190.955 41.5309 192.56 42.0801 194.251 41.8574C195.943 41.6348 197.524 40.6806 198.994 38.9949C200.464 37.3058 201.193 35.611 201.18 33.9105V33.9089ZM194.313 29.2652C195.563 29.0574 196.771 29.4614 197.937 30.4772C199.099 31.489 199.657 32.6193 199.614 33.8681C199.57 35.1169 198.931 36.4492 197.696 37.865C196.451 39.2957 195.211 40.1192 193.975 40.3356C192.739 40.552 191.539 40.1521 190.373 39.1357C189.214 38.128 188.652 36.9912 188.688 35.7252C188.724 34.4593 189.362 33.1132 190.603 31.687C191.826 30.2819 193.063 29.4752 194.313 29.2668V29.2652ZM194.922 48.9097C195.826 48.8957 196.717 48.4727 197.594 47.6406L207.634 38.129L206.516 36.9503L196.381 46.5537C195.979 46.9894 195.433 47.266 194.844 47.3329C194.576 47.3367 194.311 47.2803 194.068 47.1679C193.824 47.0555 193.609 46.89 193.439 46.6835C193.109 46.3378 192.828 45.9484 192.604 45.5263L191.598 46.4785C191.767 46.9336 192.035 47.345 192.384 47.6822C193.173 48.5138 194.019 48.9229 194.922 48.9097ZM206.06 55.5738L202.17 50.795L206.156 47.5526L209.81 52.0426L210.92 51.1386L207.269 46.6486L210.759 43.81L214.646 48.5889L215.765 47.679L210.853 41.6401L200.021 50.4513L204.933 56.4896L206.06 55.5738ZM221.771 60.1877L223.316 60.0085C223.132 58.6966 222.649 57.4444 221.905 56.3483C221.251 55.2796 220.324 54.4045 219.22 53.813C218.183 53.2791 217.01 53.0703 215.853 53.2138C214.558 53.3846 213.321 53.8554 212.24 54.5885C210.309 55.8363 209.122 57.2679 208.68 58.8835C208.239 60.4991 208.576 62.1707 209.692 63.8984C210.326 64.9378 211.14 65.8562 212.095 66.6109L213.289 65.8387C212.428 65.106 211.671 64.2601 211.038 63.3241C210.18 61.9925 209.936 60.6967 210.306 59.4366C210.676 58.1766 211.63 57.0506 213.168 56.0588C214.66 55.0947 216.075 54.7084 217.414 54.9C218.754 55.0915 219.841 55.8316 220.676 57.1203C221.264 58.0491 221.638 59.0968 221.771 60.1877V60.1877ZM226.358 67.7333L228.337 71.6873L229.628 71.0414L224.941 61.6819L223.651 62.3275L225.631 66.2815L214.437 71.888L215.164 73.3397L226.358 67.7333ZM231.615 109.943C232.144 109.324 232.579 108.256 232.922 106.739C233.061 106.044 233.266 105.363 233.536 104.707C233.693 104.317 233.946 103.974 234.271 103.709C234.611 103.473 235.007 103.332 235.419 103.3C235.711 103.251 236.011 103.275 236.291 103.369C236.572 103.462 236.826 103.623 237.031 103.836C237.458 104.272 237.721 104.917 237.825 105.77C237.95 106.921 237.842 108.086 237.509 109.195L238.973 109.527C239.342 108.264 239.443 106.938 239.271 105.633C239.11 104.312 238.665 103.288 237.935 102.563C237.59 102.209 237.165 101.944 236.696 101.788C236.227 101.633 235.727 101.591 235.239 101.668C234.335 101.736 233.488 102.139 232.865 102.798C232.299 103.428 231.865 104.416 231.562 105.761C231.411 106.5 231.199 107.226 230.929 107.93C230.775 108.34 230.525 108.708 230.199 109C229.866 109.25 229.469 109.4 229.054 109.433C228.726 109.487 228.391 109.459 228.076 109.353C227.762 109.247 227.479 109.065 227.251 108.824C226.779 108.33 226.478 107.546 226.347 106.471C226.267 105.802 226.255 105.126 226.312 104.455C226.364 103.803 226.479 103.157 226.655 102.527L225.1 102.715C224.786 103.651 224.728 104.941 224.925 106.585C225.11 108.102 225.598 109.261 226.387 110.063C226.774 110.457 227.249 110.753 227.774 110.923C228.299 111.094 228.858 111.136 229.402 111.044C230.255 110.977 231.048 110.582 231.615 109.942V109.943ZM238.472 118.4L238.56 122.821L240.001 122.792L239.791 112.327L238.351 112.356L238.44 116.777L225.92 117.027L225.953 118.65L238.472 118.4ZM225 135.595L239.448 131.356L239.569 129.996L226.087 123.265L225.945 124.901L230.215 127.004L229.724 132.579L225.148 133.92L225 135.595ZM231.621 127.703L235.787 129.72C236.423 130.017 237.076 130.276 237.742 130.496C236.929 130.648 236.241 130.805 235.677 130.966L231.224 132.203L231.621 127.703ZM229.373 143.099L223.005 145.236L222.616 147.116L229.528 144.671C229.786 146.636 230.819 147.805 232.627 148.178C233.917 148.444 234.966 148.243 235.773 147.574C236.581 146.905 237.158 145.732 237.506 144.055L238.279 140.304L224.603 137.482L224.276 139.072L229.963 140.246L229.373 143.099ZM236.556 141.607L236.13 143.674C235.886 144.852 235.509 145.667 235.001 146.118C234.494 146.569 233.785 146.701 232.881 146.514C231.991 146.33 231.377 145.93 231.039 145.315C230.701 144.699 230.647 143.83 230.878 142.707L231.328 140.528L236.556 141.607ZM232.514 157.219L231.154 161.427L232.527 161.87L235.744 151.91L234.373 151.466L233.013 155.673L221.097 151.824L220.598 153.369L232.514 157.219ZM227.24 173.723L228.871 170.492L216.411 164.193L215.679 165.641L220.58 168.119L219.839 169.585C219.029 171.188 218.746 172.591 218.989 173.795C219.232 174.999 219.985 175.92 221.248 176.558C223.667 177.782 225.665 176.837 227.24 173.722V173.723ZM226.886 171.309L226.068 172.928C225.491 174.07 224.864 174.809 224.188 175.145C223.511 175.481 222.761 175.441 221.937 175.024C221.022 174.562 220.503 173.939 220.379 173.155C220.254 172.371 220.516 171.337 221.164 170.053L221.824 168.749L226.886 171.309ZM213.281 181.582L206.572 181.223L205.518 182.828L212.846 183.101C212.361 185.022 212.89 186.489 214.434 187.502C215.537 188.225 216.586 188.425 217.583 188.101C218.58 187.776 219.549 186.898 220.488 185.466L222.589 182.264L210.915 174.604L210.024 175.961L214.879 179.147L213.281 181.582ZM220.51 182.841L219.351 184.606C218.691 185.612 218.041 186.231 217.401 186.462C216.761 186.694 216.055 186.556 215.285 186.05C214.523 185.55 214.099 184.952 214.013 184.255C213.925 183.558 214.195 182.73 214.826 181.772L216.046 179.912L220.51 182.841ZM206.677 200.545C208.377 200.519 209.88 199.745 211.186 198.223C212.53 196.658 213.091 195.042 212.87 193.377C212.653 191.712 211.681 190.139 209.954 188.659C208.214 187.166 206.503 186.435 204.823 186.464C203.143 186.493 201.632 187.287 200.29 188.848C198.981 190.375 198.443 191.985 198.677 193.677C198.912 195.369 199.877 196.942 201.574 198.396C203.275 199.855 204.976 200.571 206.677 200.545V200.545ZM211.269 193.645C211.486 194.893 211.091 196.104 210.083 197.278C209.08 198.447 207.954 199.014 206.706 198.978C205.458 198.943 204.12 198.314 202.693 197.091C201.255 195.855 200.423 194.62 200.196 193.387C199.969 192.153 200.36 190.949 201.371 189.775C202.369 188.611 203.501 188.041 204.769 188.066C206.037 188.091 207.387 188.72 208.82 189.951C210.236 191.166 211.053 192.397 211.269 193.645V193.645ZM191.631 194.4C191.649 195.303 192.078 196.191 192.918 197.063L202.503 207.032L203.672 205.908L193.997 195.841C193.557 195.442 193.277 194.898 193.205 194.309C193.199 194.042 193.254 193.776 193.364 193.532C193.475 193.288 193.639 193.072 193.844 192.9C194.187 192.568 194.574 192.285 194.994 192.058L194.037 191.06C193.582 191.23 193.172 191.502 192.838 191.853C192.012 192.648 191.609 193.496 191.631 194.399V194.4ZM185.043 205.586L189.793 201.664L193.063 205.626L188.599 209.312L189.512 210.417L193.975 206.731L196.84 210.202L192.089 214.121L193.007 215.235L199.01 210.28L190.12 199.511L184.12 204.467L185.043 205.586ZM180.544 221.329L180.735 222.872C182.045 222.68 183.295 222.189 184.385 221.437C185.449 220.775 186.318 219.841 186.901 218.733C187.427 217.693 187.627 216.519 187.476 215.363C187.295 214.069 186.816 212.835 186.075 211.758C184.812 209.837 183.371 208.662 181.754 208.231C180.134 207.801 178.464 208.151 176.746 209.28C175.711 209.92 174.799 210.739 174.053 211.699L174.833 212.89C175.558 212.023 176.398 211.26 177.33 210.621C178.656 209.752 179.949 209.499 181.212 209.862C182.475 210.225 183.607 211.17 184.611 212.697C185.584 214.181 185.981 215.594 185.802 216.935C185.619 218.279 184.887 219.372 183.605 220.213C182.68 220.808 181.634 221.189 180.544 221.329V221.329V221.329ZM173.033 225.973L169.093 227.982L169.747 229.267L179.074 224.511L178.417 223.226L174.479 225.235L168.792 214.081L167.344 214.819L173.033 225.973Z"></path>
    <path d="M90.6673 10.5823C90.6673 11.5569 89.8714 12.347 88.8895 12.347C87.9077 12.347 87.1117 11.5569 87.1117 10.5823C87.1117 9.60768 87.9077 8.81759 88.8895 8.81759C89.8714 8.81759 90.6673 9.60768 90.6673 10.5823Z"></path>
    <path d="M229.334 86.463C229.334 87.4376 228.538 88.2277 227.556 88.2277C226.574 88.2277 225.778 87.4376 225.778 86.463C225.778 85.4884 226.574 84.6983 227.556 84.6983C228.538 84.6983 229.334 85.4884 229.334 86.463Z"></path>
    <path d="M152.889 229.413C152.889 230.388 152.093 231.178 151.111 231.178C150.129 231.178 149.333 230.388 149.333 229.413C149.333 228.439 150.129 227.649 151.111 227.649C152.093 227.649 152.889 228.439 152.889 229.413Z"></path>
    <path d="M10.6658 151.765C10.6658 152.74 9.86984 153.53 8.888 153.53C7.90616 153.53 7.11022 152.74 7.11022 151.765C7.11022 150.791 7.90616 150.001 8.888 150.001C9.86984 150.001 10.6658 150.791 10.6658 151.765Z"></path>
    <path fill-rule="evenodd" clip-rule="evenodd" d="M95.775 119.856C95.775 119.58 95.9988 119.356 96.275 119.356L142.37 119.356C142.646 119.356 142.87 119.58 142.87 119.856C142.87 120.132 142.646 120.356 142.37 120.356L96.275 120.356C95.9988 120.356 95.775 120.132 95.775 119.856Z"></path>
    <path fill-rule="evenodd" clip-rule="evenodd" d="M117.609 93.7495C117.801 93.5517 118.118 93.5475 118.316 93.7401L144.075 118.821C144.171 118.915 144.226 119.045 144.226 119.18C144.226 119.315 144.171 119.444 144.075 119.538L118.316 144.619C118.118 144.812 117.801 144.808 117.609 144.61C117.416 144.412 117.42 144.095 117.618 143.903L143.009 119.18L117.618 94.4566C117.42 94.2639 117.416 93.9474 117.609 93.7495Z"></path>
    <rect x="54.7469" y="53.925" width="130.507" height="130.507" rx="65.2536" stroke="#1E1E1E"></rect>
  </symbol>
  <symbol xmlns="http://www.w3.org/2000/svg" viewBox="0 0 24 24" id="arrow-1">
    <path fill-rule="evenodd" clip-rule="evenodd" d="M21.1213 4.29289L3.87378 21.5404L2.45956 20.1262L19.7071 2.87868L21.1213 4.29289Z"></path>
    <path fill-rule="evenodd" clip-rule="evenodd" d="M2.87376 2.45956H20.5404L21.5404 3.45956V21.1262H19.5404V4.45956H2.87376V2.45956Z"></path>
  </symbol>
  <symbol xmlns="http://www.w3.org/2000/svg" viewBox="0 0 24 24" id="telegram">
    <path fill-rule="evenodd" clip-rule="evenodd" d="M22.3536 1.64645C22.5488 1.84171 22.5488 2.15829 22.3536 2.35355L11.3536 13.3536C11.1583 13.5488 10.8417 13.5488 10.6464 13.3536C10.4512 13.1583 10.4512 12.8417 10.6464 12.6464L21.6464 1.64645C21.8417 1.45118 22.1583 1.45118 22.3536 1.64645Z"></path>
    <path fill-rule="evenodd" clip-rule="evenodd" d="M22.3536 1.64645C22.4894 1.78226 22.5354 1.98388 22.4719 2.16517L15.4719 22.1652C15.4042 22.3587 15.2252 22.4912 15.0204 22.4996C14.8155 22.5079 14.6264 22.3904 14.5431 22.2031L10.6212 13.3788L1.79693 9.4569C1.60959 9.37364 1.49206 9.18446 1.50042 8.97962C1.50878 8.77478 1.64133 8.59579 1.83483 8.52807L21.8348 1.52807C22.0161 1.46462 22.2177 1.51063 22.3536 1.64645ZM3.35554 9.0553L11.2031 12.5431C11.3162 12.5934 11.4066 12.6838 11.4569 12.7969L14.9447 20.6445L21.185 2.81498L3.35554 9.0553Z"></path>
  </symbol>
  <symbol xmlns="http://www.w3.org/2000/svg" viewBox="0 0 32 32" id="additional-services">
    <path fill-rule="evenodd" clip-rule="evenodd" d="M12.133 5.8362C9.75818 5.8362 7.83301 7.76137 7.83301 10.1362C7.83301 12.511 9.75818 14.4362 12.133 14.4362C14.5078 14.4362 16.433 12.511 16.433 10.1362C16.433 7.76137 14.5078 5.8362 12.133 5.8362ZM6.83301 10.1362C6.83301 7.20909 9.2059 4.8362 12.133 4.8362C15.0601 4.8362 17.433 7.20909 17.433 10.1362C17.433 13.0633 15.0601 15.4362 12.133 15.4362C9.2059 15.4362 6.83301 13.0633 6.83301 10.1362Z"></path>
    <path fill-rule="evenodd" clip-rule="evenodd" d="M12.6667 18.6331C11.1755 18.6331 9.96667 19.8419 9.96667 21.3331C9.96667 22.8242 11.1755 24.0331 12.6667 24.0331C14.1578 24.0331 15.3667 22.8242 15.3667 21.3331C15.3667 19.8419 14.1578 18.6331 12.6667 18.6331ZM8.96667 21.3331C8.96667 19.2896 10.6232 17.6331 12.6667 17.6331C14.7101 17.6331 16.3667 19.2896 16.3667 21.3331C16.3667 23.3765 14.7101 25.0331 12.6667 25.0331C10.6232 25.0331 8.96667 23.3765 8.96667 21.3331Z"></path>
    <path fill-rule="evenodd" clip-rule="evenodd" d="M10.0066 1.56667C5.87013 1.56667 2.5 4.98982 2.5 9.23345V21.6999C2.5 25.9435 5.87013 29.3667 10.0066 29.3667H22.2286C26.3652 29.3667 29.7353 25.9435 29.7353 21.6999V9.23345C29.7353 4.98982 26.3652 1.56667 22.2286 1.56667H10.0066ZM1.5 9.23345C1.5 4.4563 5.29927 0.566667 10.0066 0.566667H22.2286C26.936 0.566667 30.7353 4.4563 30.7353 9.23345V21.6999C30.7353 26.477 26.936 30.3667 22.2286 30.3667H10.0066C5.29927 30.3667 1.5 26.477 1.5 21.6999V9.23345Z"></path>
  </symbol>
  <symbol xmlns="http://www.w3.org/2000/svg" viewBox="0 0 32 32" id="custom-solutions">
    <path fill-rule="evenodd" clip-rule="evenodd" d="M10.0066 1.56667C5.87013 1.56667 2.5 4.98982 2.5 9.23345V21.6999C2.5 25.9435 5.87013 29.3667 10.0066 29.3667H22.2286C26.3652 29.3667 29.7353 25.9435 29.7353 21.6999V9.23345C29.7353 4.98982 26.3652 1.56667 22.2286 1.56667H10.0066ZM1.5 9.23345C1.5 4.4563 5.29927 0.566667 10.0066 0.566667H22.2286C26.936 0.566667 30.7353 4.4563 30.7353 9.23345V21.6999C30.7353 26.477 26.936 30.3667 22.2286 30.3667H10.0066C5.29927 30.3667 1.5 26.477 1.5 21.6999V9.23345Z"></path>
    <path fill-rule="evenodd" clip-rule="evenodd" d="M21.4005 10.594V16.471H20.4005V10.594H21.4005Z"></path>
    <path fill-rule="evenodd" clip-rule="evenodd" d="M10.8408 21.346V15.469H11.8408V21.346H10.8408Z"></path>
    <path fill-rule="evenodd" clip-rule="evenodd" d="M11.3646 6.22292C8.98976 6.22292 7.06459 8.14809 7.06459 10.5229C7.06459 12.8977 8.98976 14.8229 11.3646 14.8229C13.7394 14.8229 15.6646 12.8977 15.6646 10.5229C15.6646 8.14809 13.7394 6.22292 11.3646 6.22292ZM6.06459 10.5229C6.06459 7.59581 8.43748 5.22292 11.3646 5.22292C14.2917 5.22292 16.6646 7.59581 16.6646 10.5229C16.6646 13.45 14.2917 15.8229 11.3646 15.8229C8.43748 15.8229 6.06459 13.45 6.06459 10.5229Z"></path>
    <path fill-rule="evenodd" clip-rule="evenodd" d="M20.924 16.969C18.5492 16.969 16.624 18.8942 16.624 21.269C16.624 23.6438 18.5492 25.569 20.924 25.569C23.2989 25.569 25.224 23.6438 25.224 21.269C25.224 18.8942 23.2989 16.969 20.924 16.969ZM15.624 21.269C15.624 18.3419 17.9969 15.969 20.924 15.969C23.8511 15.969 26.224 18.3419 26.224 21.269C26.224 24.1961 23.8511 26.569 20.924 26.569C17.9969 26.569 15.624 24.1961 15.624 21.269Z"></path>
  </symbol>
</svg>